<?xml version="1.0" encoding="utf-8" standalone="no"?>
<!DOCTYPE svg PUBLIC "-//W3C//DTD SVG 1.1//EN"
  "http://www.w3.org/Graphics/SVG/1.1/DTD/svg11.dtd">
<svg xmlns:xlink="http://www.w3.org/1999/xlink" width="1000.620625pt" height="351.172812pt" viewBox="0 0 1000.620625 351.172812" xmlns="http://www.w3.org/2000/svg" version="1.1">
 <metadata>
  <rdf:RDF xmlns:dc="http://purl.org/dc/elements/1.1/" xmlns:cc="http://creativecommons.org/ns#" xmlns:rdf="http://www.w3.org/1999/02/22-rdf-syntax-ns#">
   <cc:Work>
    <dc:type rdf:resource="http://purl.org/dc/dcmitype/StillImage"/>
    <dc:date>2026-01-22T01:35:18.860445</dc:date>
    <dc:format>image/svg+xml</dc:format>
    <dc:creator>
     <cc:Agent>
      <dc:title>Matplotlib v3.10.7, https://matplotlib.org/</dc:title>
     </cc:Agent>
    </dc:creator>
   </cc:Work>
  </rdf:RDF>
 </metadata>
 <defs>
  <style type="text/css">*{stroke-linejoin: round; stroke-linecap: butt}</style>
 </defs>
 <g id="figure_1">
  <g id="patch_1">
   <path d="M 0 351.172812 
L 1000.620625 351.172812 
L 1000.620625 0 
L 0 0 
z
" style="fill: #ffffff"/>
  </g>
  <g id="axes_1">
   <g id="patch_2">
    <path d="M 59.690625 313.44625 
L 494.820625 313.44625 
L 494.820625 22.5225 
L 59.690625 22.5225 
z
" style="fill: #ffffff"/>
   </g>
   <g id="patch_3">
    <path d="M 59.690641 313.44625 
L 63.646368 313.44625 
L 63.646368 36.376012 
L 59.690641 36.376012 
z
" clip-path="url(#p0165d73c0e)" style="fill: #4682b4; opacity: 0.7; stroke: #000000; stroke-linejoin: miter"/>
   </g>
   <g id="patch_4">
    <path d="M 63.646368 313.44625 
L 67.602095 313.44625 
L 67.602095 305.807898 
L 63.646368 305.807898 
z
" clip-path="url(#p0165d73c0e)" style="fill: #4682b4; opacity: 0.7; stroke: #000000; stroke-linejoin: miter"/>
   </g>
   <g id="patch_5">
    <path d="M 67.602095 313.44625 
L 71.557823 313.44625 
L 71.557823 313.178685 
L 67.602095 313.178685 
z
" clip-path="url(#p0165d73c0e)" style="fill: #4682b4; opacity: 0.7; stroke: #000000; stroke-linejoin: miter"/>
   </g>
   <g id="patch_6">
    <path d="M 71.557823 313.44625 
L 75.51355 313.44625 
L 75.51355 313.414397 
L 71.557823 313.414397 
z
" clip-path="url(#p0165d73c0e)" style="fill: #4682b4; opacity: 0.7; stroke: #000000; stroke-linejoin: miter"/>
   </g>
   <g id="patch_7">
    <path d="M 75.51355 313.44625 
L 79.469277 313.44625 
L 79.469277 313.439879 
L 75.51355 313.439879 
z
" clip-path="url(#p0165d73c0e)" style="fill: #4682b4; opacity: 0.7; stroke: #000000; stroke-linejoin: miter"/>
   </g>
   <g id="patch_8">
    <path d="M 79.469277 313.44625 
L 83.425004 313.44625 
L 83.425004 313.44625 
L 79.469277 313.44625 
z
" clip-path="url(#p0165d73c0e)" style="fill: #4682b4; opacity: 0.7; stroke: #000000; stroke-linejoin: miter"/>
   </g>
   <g id="patch_9">
    <path d="M 83.425004 313.44625 
L 87.380731 313.44625 
L 87.380731 313.44625 
L 83.425004 313.44625 
z
" clip-path="url(#p0165d73c0e)" style="fill: #4682b4; opacity: 0.7; stroke: #000000; stroke-linejoin: miter"/>
   </g>
   <g id="patch_10">
    <path d="M 87.380731 313.44625 
L 91.336458 313.44625 
L 91.336458 313.439879 
L 87.380731 313.439879 
z
" clip-path="url(#p0165d73c0e)" style="fill: #4682b4; opacity: 0.7; stroke: #000000; stroke-linejoin: miter"/>
   </g>
   <g id="patch_11">
    <path d="M 91.336458 313.44625 
L 95.292185 313.44625 
L 95.292185 313.44625 
L 91.336458 313.44625 
z
" clip-path="url(#p0165d73c0e)" style="fill: #4682b4; opacity: 0.7; stroke: #000000; stroke-linejoin: miter"/>
   </g>
   <g id="patch_12">
    <path d="M 95.292185 313.44625 
L 99.247912 313.44625 
L 99.247912 313.44625 
L 95.292185 313.44625 
z
" clip-path="url(#p0165d73c0e)" style="fill: #4682b4; opacity: 0.7; stroke: #000000; stroke-linejoin: miter"/>
   </g>
   <g id="patch_13">
    <path d="M 99.247912 313.44625 
L 103.203639 313.44625 
L 103.203639 313.439879 
L 99.247912 313.439879 
z
" clip-path="url(#p0165d73c0e)" style="fill: #4682b4; opacity: 0.7; stroke: #000000; stroke-linejoin: miter"/>
   </g>
   <g id="patch_14">
    <path d="M 103.203639 313.44625 
L 107.159367 313.44625 
L 107.159367 313.44625 
L 103.203639 313.44625 
z
" clip-path="url(#p0165d73c0e)" style="fill: #4682b4; opacity: 0.7; stroke: #000000; stroke-linejoin: miter"/>
   </g>
   <g id="patch_15">
    <path d="M 107.159367 313.44625 
L 111.115094 313.44625 
L 111.115094 313.439879 
L 107.159367 313.439879 
z
" clip-path="url(#p0165d73c0e)" style="fill: #4682b4; opacity: 0.7; stroke: #000000; stroke-linejoin: miter"/>
   </g>
   <g id="patch_16">
    <path d="M 111.115094 313.44625 
L 115.070821 313.44625 
L 115.070821 313.44625 
L 111.115094 313.44625 
z
" clip-path="url(#p0165d73c0e)" style="fill: #4682b4; opacity: 0.7; stroke: #000000; stroke-linejoin: miter"/>
   </g>
   <g id="patch_17">
    <path d="M 115.070821 313.44625 
L 119.026548 313.44625 
L 119.026548 313.44625 
L 115.070821 313.44625 
z
" clip-path="url(#p0165d73c0e)" style="fill: #4682b4; opacity: 0.7; stroke: #000000; stroke-linejoin: miter"/>
   </g>
   <g id="patch_18">
    <path d="M 119.026548 313.44625 
L 122.982275 313.44625 
L 122.982275 313.44625 
L 119.026548 313.44625 
z
" clip-path="url(#p0165d73c0e)" style="fill: #4682b4; opacity: 0.7; stroke: #000000; stroke-linejoin: miter"/>
   </g>
   <g id="patch_19">
    <path d="M 122.982275 313.44625 
L 126.938002 313.44625 
L 126.938002 313.44625 
L 122.982275 313.44625 
z
" clip-path="url(#p0165d73c0e)" style="fill: #4682b4; opacity: 0.7; stroke: #000000; stroke-linejoin: miter"/>
   </g>
   <g id="patch_20">
    <path d="M 126.938002 313.44625 
L 130.893729 313.44625 
L 130.893729 313.44625 
L 126.938002 313.44625 
z
" clip-path="url(#p0165d73c0e)" style="fill: #4682b4; opacity: 0.7; stroke: #000000; stroke-linejoin: miter"/>
   </g>
   <g id="patch_21">
    <path d="M 130.893729 313.44625 
L 134.849456 313.44625 
L 134.849456 313.44625 
L 130.893729 313.44625 
z
" clip-path="url(#p0165d73c0e)" style="fill: #4682b4; opacity: 0.7; stroke: #000000; stroke-linejoin: miter"/>
   </g>
   <g id="patch_22">
    <path d="M 134.849456 313.44625 
L 138.805183 313.44625 
L 138.805183 313.44625 
L 134.849456 313.44625 
z
" clip-path="url(#p0165d73c0e)" style="fill: #4682b4; opacity: 0.7; stroke: #000000; stroke-linejoin: miter"/>
   </g>
   <g id="patch_23">
    <path d="M 138.805183 313.44625 
L 142.760911 313.44625 
L 142.760911 313.44625 
L 138.805183 313.44625 
z
" clip-path="url(#p0165d73c0e)" style="fill: #4682b4; opacity: 0.7; stroke: #000000; stroke-linejoin: miter"/>
   </g>
   <g id="patch_24">
    <path d="M 142.760911 313.44625 
L 146.716638 313.44625 
L 146.716638 313.44625 
L 142.760911 313.44625 
z
" clip-path="url(#p0165d73c0e)" style="fill: #4682b4; opacity: 0.7; stroke: #000000; stroke-linejoin: miter"/>
   </g>
   <g id="patch_25">
    <path d="M 146.716638 313.44625 
L 150.672365 313.44625 
L 150.672365 313.44625 
L 146.716638 313.44625 
z
" clip-path="url(#p0165d73c0e)" style="fill: #4682b4; opacity: 0.7; stroke: #000000; stroke-linejoin: miter"/>
   </g>
   <g id="patch_26">
    <path d="M 150.672365 313.44625 
L 154.628092 313.44625 
L 154.628092 313.44625 
L 150.672365 313.44625 
z
" clip-path="url(#p0165d73c0e)" style="fill: #4682b4; opacity: 0.7; stroke: #000000; stroke-linejoin: miter"/>
   </g>
   <g id="patch_27">
    <path d="M 154.628092 313.44625 
L 158.583819 313.44625 
L 158.583819 313.44625 
L 154.628092 313.44625 
z
" clip-path="url(#p0165d73c0e)" style="fill: #4682b4; opacity: 0.7; stroke: #000000; stroke-linejoin: miter"/>
   </g>
   <g id="patch_28">
    <path d="M 158.583819 313.44625 
L 162.539546 313.44625 
L 162.539546 313.44625 
L 158.583819 313.44625 
z
" clip-path="url(#p0165d73c0e)" style="fill: #4682b4; opacity: 0.7; stroke: #000000; stroke-linejoin: miter"/>
   </g>
   <g id="patch_29">
    <path d="M 162.539546 313.44625 
L 166.495273 313.44625 
L 166.495273 313.44625 
L 162.539546 313.44625 
z
" clip-path="url(#p0165d73c0e)" style="fill: #4682b4; opacity: 0.7; stroke: #000000; stroke-linejoin: miter"/>
   </g>
   <g id="patch_30">
    <path d="M 166.495273 313.44625 
L 170.451 313.44625 
L 170.451 313.44625 
L 166.495273 313.44625 
z
" clip-path="url(#p0165d73c0e)" style="fill: #4682b4; opacity: 0.7; stroke: #000000; stroke-linejoin: miter"/>
   </g>
   <g id="patch_31">
    <path d="M 170.451 313.44625 
L 174.406727 313.44625 
L 174.406727 313.44625 
L 170.451 313.44625 
z
" clip-path="url(#p0165d73c0e)" style="fill: #4682b4; opacity: 0.7; stroke: #000000; stroke-linejoin: miter"/>
   </g>
   <g id="patch_32">
    <path d="M 174.406727 313.44625 
L 178.362455 313.44625 
L 178.362455 313.44625 
L 174.406727 313.44625 
z
" clip-path="url(#p0165d73c0e)" style="fill: #4682b4; opacity: 0.7; stroke: #000000; stroke-linejoin: miter"/>
   </g>
   <g id="patch_33">
    <path d="M 178.362455 313.44625 
L 182.318182 313.44625 
L 182.318182 313.44625 
L 178.362455 313.44625 
z
" clip-path="url(#p0165d73c0e)" style="fill: #4682b4; opacity: 0.7; stroke: #000000; stroke-linejoin: miter"/>
   </g>
   <g id="patch_34">
    <path d="M 182.318182 313.44625 
L 186.273909 313.44625 
L 186.273909 313.439879 
L 182.318182 313.439879 
z
" clip-path="url(#p0165d73c0e)" style="fill: #4682b4; opacity: 0.7; stroke: #000000; stroke-linejoin: miter"/>
   </g>
   <g id="patch_35">
    <path d="M 186.273909 313.44625 
L 190.229636 313.44625 
L 190.229636 313.44625 
L 186.273909 313.44625 
z
" clip-path="url(#p0165d73c0e)" style="fill: #4682b4; opacity: 0.7; stroke: #000000; stroke-linejoin: miter"/>
   </g>
   <g id="patch_36">
    <path d="M 190.229636 313.44625 
L 194.185363 313.44625 
L 194.185363 313.44625 
L 190.229636 313.44625 
z
" clip-path="url(#p0165d73c0e)" style="fill: #4682b4; opacity: 0.7; stroke: #000000; stroke-linejoin: miter"/>
   </g>
   <g id="patch_37">
    <path d="M 194.185363 313.44625 
L 198.14109 313.44625 
L 198.14109 313.44625 
L 194.185363 313.44625 
z
" clip-path="url(#p0165d73c0e)" style="fill: #4682b4; opacity: 0.7; stroke: #000000; stroke-linejoin: miter"/>
   </g>
   <g id="patch_38">
    <path d="M 198.14109 313.44625 
L 202.096817 313.44625 
L 202.096817 313.44625 
L 198.14109 313.44625 
z
" clip-path="url(#p0165d73c0e)" style="fill: #4682b4; opacity: 0.7; stroke: #000000; stroke-linejoin: miter"/>
   </g>
   <g id="patch_39">
    <path d="M 202.096817 313.44625 
L 206.052544 313.44625 
L 206.052544 313.44625 
L 202.096817 313.44625 
z
" clip-path="url(#p0165d73c0e)" style="fill: #4682b4; opacity: 0.7; stroke: #000000; stroke-linejoin: miter"/>
   </g>
   <g id="patch_40">
    <path d="M 206.052544 313.44625 
L 210.008271 313.44625 
L 210.008271 313.44625 
L 206.052544 313.44625 
z
" clip-path="url(#p0165d73c0e)" style="fill: #4682b4; opacity: 0.7; stroke: #000000; stroke-linejoin: miter"/>
   </g>
   <g id="patch_41">
    <path d="M 210.008271 313.44625 
L 213.963999 313.44625 
L 213.963999 313.44625 
L 210.008271 313.44625 
z
" clip-path="url(#p0165d73c0e)" style="fill: #4682b4; opacity: 0.7; stroke: #000000; stroke-linejoin: miter"/>
   </g>
   <g id="patch_42">
    <path d="M 213.963999 313.44625 
L 217.919726 313.44625 
L 217.919726 313.44625 
L 213.963999 313.44625 
z
" clip-path="url(#p0165d73c0e)" style="fill: #4682b4; opacity: 0.7; stroke: #000000; stroke-linejoin: miter"/>
   </g>
   <g id="patch_43">
    <path d="M 217.919726 313.44625 
L 221.875453 313.44625 
L 221.875453 313.44625 
L 217.919726 313.44625 
z
" clip-path="url(#p0165d73c0e)" style="fill: #4682b4; opacity: 0.7; stroke: #000000; stroke-linejoin: miter"/>
   </g>
   <g id="patch_44">
    <path d="M 221.875453 313.44625 
L 225.83118 313.44625 
L 225.83118 313.44625 
L 221.875453 313.44625 
z
" clip-path="url(#p0165d73c0e)" style="fill: #4682b4; opacity: 0.7; stroke: #000000; stroke-linejoin: miter"/>
   </g>
   <g id="patch_45">
    <path d="M 225.83118 313.44625 
L 229.786907 313.44625 
L 229.786907 313.44625 
L 225.83118 313.44625 
z
" clip-path="url(#p0165d73c0e)" style="fill: #4682b4; opacity: 0.7; stroke: #000000; stroke-linejoin: miter"/>
   </g>
   <g id="patch_46">
    <path d="M 229.786907 313.44625 
L 233.742634 313.44625 
L 233.742634 313.44625 
L 229.786907 313.44625 
z
" clip-path="url(#p0165d73c0e)" style="fill: #4682b4; opacity: 0.7; stroke: #000000; stroke-linejoin: miter"/>
   </g>
   <g id="patch_47">
    <path d="M 233.742634 313.44625 
L 237.698361 313.44625 
L 237.698361 313.44625 
L 233.742634 313.44625 
z
" clip-path="url(#p0165d73c0e)" style="fill: #4682b4; opacity: 0.7; stroke: #000000; stroke-linejoin: miter"/>
   </g>
   <g id="patch_48">
    <path d="M 237.698361 313.44625 
L 241.654088 313.44625 
L 241.654088 313.44625 
L 237.698361 313.44625 
z
" clip-path="url(#p0165d73c0e)" style="fill: #4682b4; opacity: 0.7; stroke: #000000; stroke-linejoin: miter"/>
   </g>
   <g id="patch_49">
    <path d="M 241.654088 313.44625 
L 245.609815 313.44625 
L 245.609815 313.44625 
L 241.654088 313.44625 
z
" clip-path="url(#p0165d73c0e)" style="fill: #4682b4; opacity: 0.7; stroke: #000000; stroke-linejoin: miter"/>
   </g>
   <g id="patch_50">
    <path d="M 245.609815 313.44625 
L 249.565543 313.44625 
L 249.565543 313.44625 
L 245.609815 313.44625 
z
" clip-path="url(#p0165d73c0e)" style="fill: #4682b4; opacity: 0.7; stroke: #000000; stroke-linejoin: miter"/>
   </g>
   <g id="patch_51">
    <path d="M 249.565543 313.44625 
L 253.52127 313.44625 
L 253.52127 313.44625 
L 249.565543 313.44625 
z
" clip-path="url(#p0165d73c0e)" style="fill: #4682b4; opacity: 0.7; stroke: #000000; stroke-linejoin: miter"/>
   </g>
   <g id="patch_52">
    <path d="M 253.52127 313.44625 
L 257.476997 313.44625 
L 257.476997 313.44625 
L 253.52127 313.44625 
z
" clip-path="url(#p0165d73c0e)" style="fill: #4682b4; opacity: 0.7; stroke: #000000; stroke-linejoin: miter"/>
   </g>
   <g id="patch_53">
    <path d="M 257.476997 313.44625 
L 261.432724 313.44625 
L 261.432724 313.44625 
L 257.476997 313.44625 
z
" clip-path="url(#p0165d73c0e)" style="fill: #4682b4; opacity: 0.7; stroke: #000000; stroke-linejoin: miter"/>
   </g>
   <g id="patch_54">
    <path d="M 261.432724 313.44625 
L 265.388451 313.44625 
L 265.388451 313.44625 
L 261.432724 313.44625 
z
" clip-path="url(#p0165d73c0e)" style="fill: #4682b4; opacity: 0.7; stroke: #000000; stroke-linejoin: miter"/>
   </g>
   <g id="patch_55">
    <path d="M 265.388451 313.44625 
L 269.344178 313.44625 
L 269.344178 313.44625 
L 265.388451 313.44625 
z
" clip-path="url(#p0165d73c0e)" style="fill: #4682b4; opacity: 0.7; stroke: #000000; stroke-linejoin: miter"/>
   </g>
   <g id="patch_56">
    <path d="M 269.344178 313.44625 
L 273.299905 313.44625 
L 273.299905 313.44625 
L 269.344178 313.44625 
z
" clip-path="url(#p0165d73c0e)" style="fill: #4682b4; opacity: 0.7; stroke: #000000; stroke-linejoin: miter"/>
   </g>
   <g id="patch_57">
    <path d="M 273.299905 313.44625 
L 277.255632 313.44625 
L 277.255632 313.44625 
L 273.299905 313.44625 
z
" clip-path="url(#p0165d73c0e)" style="fill: #4682b4; opacity: 0.7; stroke: #000000; stroke-linejoin: miter"/>
   </g>
   <g id="patch_58">
    <path d="M 277.255632 313.44625 
L 281.211359 313.44625 
L 281.211359 313.44625 
L 277.255632 313.44625 
z
" clip-path="url(#p0165d73c0e)" style="fill: #4682b4; opacity: 0.7; stroke: #000000; stroke-linejoin: miter"/>
   </g>
   <g id="patch_59">
    <path d="M 281.211359 313.44625 
L 285.167087 313.44625 
L 285.167087 313.44625 
L 281.211359 313.44625 
z
" clip-path="url(#p0165d73c0e)" style="fill: #4682b4; opacity: 0.7; stroke: #000000; stroke-linejoin: miter"/>
   </g>
   <g id="patch_60">
    <path d="M 285.167087 313.44625 
L 289.122814 313.44625 
L 289.122814 313.44625 
L 285.167087 313.44625 
z
" clip-path="url(#p0165d73c0e)" style="fill: #4682b4; opacity: 0.7; stroke: #000000; stroke-linejoin: miter"/>
   </g>
   <g id="patch_61">
    <path d="M 289.122814 313.44625 
L 293.078541 313.44625 
L 293.078541 313.44625 
L 289.122814 313.44625 
z
" clip-path="url(#p0165d73c0e)" style="fill: #4682b4; opacity: 0.7; stroke: #000000; stroke-linejoin: miter"/>
   </g>
   <g id="patch_62">
    <path d="M 293.078541 313.44625 
L 297.034268 313.44625 
L 297.034268 313.44625 
L 293.078541 313.44625 
z
" clip-path="url(#p0165d73c0e)" style="fill: #4682b4; opacity: 0.7; stroke: #000000; stroke-linejoin: miter"/>
   </g>
   <g id="patch_63">
    <path d="M 297.034268 313.44625 
L 300.989995 313.44625 
L 300.989995 313.44625 
L 297.034268 313.44625 
z
" clip-path="url(#p0165d73c0e)" style="fill: #4682b4; opacity: 0.7; stroke: #000000; stroke-linejoin: miter"/>
   </g>
   <g id="patch_64">
    <path d="M 300.989995 313.44625 
L 304.945722 313.44625 
L 304.945722 313.44625 
L 300.989995 313.44625 
z
" clip-path="url(#p0165d73c0e)" style="fill: #4682b4; opacity: 0.7; stroke: #000000; stroke-linejoin: miter"/>
   </g>
   <g id="patch_65">
    <path d="M 304.945722 313.44625 
L 308.901449 313.44625 
L 308.901449 313.44625 
L 304.945722 313.44625 
z
" clip-path="url(#p0165d73c0e)" style="fill: #4682b4; opacity: 0.7; stroke: #000000; stroke-linejoin: miter"/>
   </g>
   <g id="patch_66">
    <path d="M 308.901449 313.44625 
L 312.857176 313.44625 
L 312.857176 313.44625 
L 308.901449 313.44625 
z
" clip-path="url(#p0165d73c0e)" style="fill: #4682b4; opacity: 0.7; stroke: #000000; stroke-linejoin: miter"/>
   </g>
   <g id="patch_67">
    <path d="M 312.857176 313.44625 
L 316.812903 313.44625 
L 316.812903 313.44625 
L 312.857176 313.44625 
z
" clip-path="url(#p0165d73c0e)" style="fill: #4682b4; opacity: 0.7; stroke: #000000; stroke-linejoin: miter"/>
   </g>
   <g id="patch_68">
    <path d="M 316.812903 313.44625 
L 320.768631 313.44625 
L 320.768631 313.44625 
L 316.812903 313.44625 
z
" clip-path="url(#p0165d73c0e)" style="fill: #4682b4; opacity: 0.7; stroke: #000000; stroke-linejoin: miter"/>
   </g>
   <g id="patch_69">
    <path d="M 320.768631 313.44625 
L 324.724358 313.44625 
L 324.724358 313.44625 
L 320.768631 313.44625 
z
" clip-path="url(#p0165d73c0e)" style="fill: #4682b4; opacity: 0.7; stroke: #000000; stroke-linejoin: miter"/>
   </g>
   <g id="patch_70">
    <path d="M 324.724358 313.44625 
L 328.680085 313.44625 
L 328.680085 313.44625 
L 324.724358 313.44625 
z
" clip-path="url(#p0165d73c0e)" style="fill: #4682b4; opacity: 0.7; stroke: #000000; stroke-linejoin: miter"/>
   </g>
   <g id="patch_71">
    <path d="M 328.680085 313.44625 
L 332.635812 313.44625 
L 332.635812 313.44625 
L 328.680085 313.44625 
z
" clip-path="url(#p0165d73c0e)" style="fill: #4682b4; opacity: 0.7; stroke: #000000; stroke-linejoin: miter"/>
   </g>
   <g id="patch_72">
    <path d="M 332.635812 313.44625 
L 336.591539 313.44625 
L 336.591539 313.44625 
L 332.635812 313.44625 
z
" clip-path="url(#p0165d73c0e)" style="fill: #4682b4; opacity: 0.7; stroke: #000000; stroke-linejoin: miter"/>
   </g>
   <g id="patch_73">
    <path d="M 336.591539 313.44625 
L 340.547266 313.44625 
L 340.547266 313.44625 
L 336.591539 313.44625 
z
" clip-path="url(#p0165d73c0e)" style="fill: #4682b4; opacity: 0.7; stroke: #000000; stroke-linejoin: miter"/>
   </g>
   <g id="patch_74">
    <path d="M 340.547266 313.44625 
L 344.502993 313.44625 
L 344.502993 313.44625 
L 340.547266 313.44625 
z
" clip-path="url(#p0165d73c0e)" style="fill: #4682b4; opacity: 0.7; stroke: #000000; stroke-linejoin: miter"/>
   </g>
   <g id="patch_75">
    <path d="M 344.502993 313.44625 
L 348.45872 313.44625 
L 348.45872 313.44625 
L 344.502993 313.44625 
z
" clip-path="url(#p0165d73c0e)" style="fill: #4682b4; opacity: 0.7; stroke: #000000; stroke-linejoin: miter"/>
   </g>
   <g id="patch_76">
    <path d="M 348.45872 313.44625 
L 352.414447 313.44625 
L 352.414447 313.44625 
L 348.45872 313.44625 
z
" clip-path="url(#p0165d73c0e)" style="fill: #4682b4; opacity: 0.7; stroke: #000000; stroke-linejoin: miter"/>
   </g>
   <g id="patch_77">
    <path d="M 352.414447 313.44625 
L 356.370175 313.44625 
L 356.370175 313.44625 
L 352.414447 313.44625 
z
" clip-path="url(#p0165d73c0e)" style="fill: #4682b4; opacity: 0.7; stroke: #000000; stroke-linejoin: miter"/>
   </g>
   <g id="patch_78">
    <path d="M 356.370175 313.44625 
L 360.325902 313.44625 
L 360.325902 313.44625 
L 356.370175 313.44625 
z
" clip-path="url(#p0165d73c0e)" style="fill: #4682b4; opacity: 0.7; stroke: #000000; stroke-linejoin: miter"/>
   </g>
   <g id="patch_79">
    <path d="M 360.325902 313.44625 
L 364.281629 313.44625 
L 364.281629 313.44625 
L 360.325902 313.44625 
z
" clip-path="url(#p0165d73c0e)" style="fill: #4682b4; opacity: 0.7; stroke: #000000; stroke-linejoin: miter"/>
   </g>
   <g id="patch_80">
    <path d="M 364.281629 313.44625 
L 368.237356 313.44625 
L 368.237356 313.44625 
L 364.281629 313.44625 
z
" clip-path="url(#p0165d73c0e)" style="fill: #4682b4; opacity: 0.7; stroke: #000000; stroke-linejoin: miter"/>
   </g>
   <g id="patch_81">
    <path d="M 368.237356 313.44625 
L 372.193083 313.44625 
L 372.193083 313.44625 
L 368.237356 313.44625 
z
" clip-path="url(#p0165d73c0e)" style="fill: #4682b4; opacity: 0.7; stroke: #000000; stroke-linejoin: miter"/>
   </g>
   <g id="patch_82">
    <path d="M 372.193083 313.44625 
L 376.14881 313.44625 
L 376.14881 313.44625 
L 372.193083 313.44625 
z
" clip-path="url(#p0165d73c0e)" style="fill: #4682b4; opacity: 0.7; stroke: #000000; stroke-linejoin: miter"/>
   </g>
   <g id="patch_83">
    <path d="M 376.14881 313.44625 
L 380.104537 313.44625 
L 380.104537 313.44625 
L 376.14881 313.44625 
z
" clip-path="url(#p0165d73c0e)" style="fill: #4682b4; opacity: 0.7; stroke: #000000; stroke-linejoin: miter"/>
   </g>
   <g id="patch_84">
    <path d="M 380.104537 313.44625 
L 384.060264 313.44625 
L 384.060264 313.44625 
L 380.104537 313.44625 
z
" clip-path="url(#p0165d73c0e)" style="fill: #4682b4; opacity: 0.7; stroke: #000000; stroke-linejoin: miter"/>
   </g>
   <g id="patch_85">
    <path d="M 384.060264 313.44625 
L 388.015991 313.44625 
L 388.015991 313.44625 
L 384.060264 313.44625 
z
" clip-path="url(#p0165d73c0e)" style="fill: #4682b4; opacity: 0.7; stroke: #000000; stroke-linejoin: miter"/>
   </g>
   <g id="patch_86">
    <path d="M 388.015991 313.44625 
L 391.971719 313.44625 
L 391.971719 313.44625 
L 388.015991 313.44625 
z
" clip-path="url(#p0165d73c0e)" style="fill: #4682b4; opacity: 0.7; stroke: #000000; stroke-linejoin: miter"/>
   </g>
   <g id="patch_87">
    <path d="M 391.971719 313.44625 
L 395.927446 313.44625 
L 395.927446 313.44625 
L 391.971719 313.44625 
z
" clip-path="url(#p0165d73c0e)" style="fill: #4682b4; opacity: 0.7; stroke: #000000; stroke-linejoin: miter"/>
   </g>
   <g id="patch_88">
    <path d="M 395.927446 313.44625 
L 399.883173 313.44625 
L 399.883173 313.44625 
L 395.927446 313.44625 
z
" clip-path="url(#p0165d73c0e)" style="fill: #4682b4; opacity: 0.7; stroke: #000000; stroke-linejoin: miter"/>
   </g>
   <g id="patch_89">
    <path d="M 399.883173 313.44625 
L 403.8389 313.44625 
L 403.8389 313.44625 
L 399.883173 313.44625 
z
" clip-path="url(#p0165d73c0e)" style="fill: #4682b4; opacity: 0.7; stroke: #000000; stroke-linejoin: miter"/>
   </g>
   <g id="patch_90">
    <path d="M 403.8389 313.44625 
L 407.794627 313.44625 
L 407.794627 313.44625 
L 403.8389 313.44625 
z
" clip-path="url(#p0165d73c0e)" style="fill: #4682b4; opacity: 0.7; stroke: #000000; stroke-linejoin: miter"/>
   </g>
   <g id="patch_91">
    <path d="M 407.794627 313.44625 
L 411.750354 313.44625 
L 411.750354 313.44625 
L 407.794627 313.44625 
z
" clip-path="url(#p0165d73c0e)" style="fill: #4682b4; opacity: 0.7; stroke: #000000; stroke-linejoin: miter"/>
   </g>
   <g id="patch_92">
    <path d="M 411.750354 313.44625 
L 415.706081 313.44625 
L 415.706081 313.44625 
L 411.750354 313.44625 
z
" clip-path="url(#p0165d73c0e)" style="fill: #4682b4; opacity: 0.7; stroke: #000000; stroke-linejoin: miter"/>
   </g>
   <g id="patch_93">
    <path d="M 415.706081 313.44625 
L 419.661808 313.44625 
L 419.661808 313.44625 
L 415.706081 313.44625 
z
" clip-path="url(#p0165d73c0e)" style="fill: #4682b4; opacity: 0.7; stroke: #000000; stroke-linejoin: miter"/>
   </g>
   <g id="patch_94">
    <path d="M 419.661808 313.44625 
L 423.617535 313.44625 
L 423.617535 313.44625 
L 419.661808 313.44625 
z
" clip-path="url(#p0165d73c0e)" style="fill: #4682b4; opacity: 0.7; stroke: #000000; stroke-linejoin: miter"/>
   </g>
   <g id="patch_95">
    <path d="M 423.617535 313.44625 
L 427.573263 313.44625 
L 427.573263 313.44625 
L 423.617535 313.44625 
z
" clip-path="url(#p0165d73c0e)" style="fill: #4682b4; opacity: 0.7; stroke: #000000; stroke-linejoin: miter"/>
   </g>
   <g id="patch_96">
    <path d="M 427.573263 313.44625 
L 431.52899 313.44625 
L 431.52899 313.44625 
L 427.573263 313.44625 
z
" clip-path="url(#p0165d73c0e)" style="fill: #4682b4; opacity: 0.7; stroke: #000000; stroke-linejoin: miter"/>
   </g>
   <g id="patch_97">
    <path d="M 431.52899 313.44625 
L 435.484717 313.44625 
L 435.484717 313.44625 
L 431.52899 313.44625 
z
" clip-path="url(#p0165d73c0e)" style="fill: #4682b4; opacity: 0.7; stroke: #000000; stroke-linejoin: miter"/>
   </g>
   <g id="patch_98">
    <path d="M 435.484717 313.44625 
L 439.440444 313.44625 
L 439.440444 313.44625 
L 435.484717 313.44625 
z
" clip-path="url(#p0165d73c0e)" style="fill: #4682b4; opacity: 0.7; stroke: #000000; stroke-linejoin: miter"/>
   </g>
   <g id="patch_99">
    <path d="M 439.440444 313.44625 
L 443.396171 313.44625 
L 443.396171 313.44625 
L 439.440444 313.44625 
z
" clip-path="url(#p0165d73c0e)" style="fill: #4682b4; opacity: 0.7; stroke: #000000; stroke-linejoin: miter"/>
   </g>
   <g id="patch_100">
    <path d="M 443.396171 313.44625 
L 447.351898 313.44625 
L 447.351898 313.44625 
L 443.396171 313.44625 
z
" clip-path="url(#p0165d73c0e)" style="fill: #4682b4; opacity: 0.7; stroke: #000000; stroke-linejoin: miter"/>
   </g>
   <g id="patch_101">
    <path d="M 447.351898 313.44625 
L 451.307625 313.44625 
L 451.307625 313.44625 
L 447.351898 313.44625 
z
" clip-path="url(#p0165d73c0e)" style="fill: #4682b4; opacity: 0.7; stroke: #000000; stroke-linejoin: miter"/>
   </g>
   <g id="patch_102">
    <path d="M 451.307625 313.44625 
L 455.263352 313.44625 
L 455.263352 313.439879 
L 451.307625 313.439879 
z
" clip-path="url(#p0165d73c0e)" style="fill: #4682b4; opacity: 0.7; stroke: #000000; stroke-linejoin: miter"/>
   </g>
   <g id="matplotlib.axis_1">
    <g id="xtick_1">
     <g id="line2d_1">
      <defs>
       <path id="m9529dfa01c" d="M 0 0 
L 0 3.5 
" style="stroke: #000000; stroke-width: 0.8"/>
      </defs>
      <g>
       <use xlink:href="#m9529dfa01c" x="59.690625" y="313.44625" style="stroke: #000000; stroke-width: 0.8"/>
      </g>
     </g>
     <g id="text_1">
      <!-- 0.0 -->
      <g transform="translate(51.739063 328.044687) scale(0.1 -0.1)">
       <defs>
        <path id="DejaVuSans-30" d="M 2034 4250 
Q 1547 4250 1301 3770 
Q 1056 3291 1056 2328 
Q 1056 1369 1301 889 
Q 1547 409 2034 409 
Q 2525 409 2770 889 
Q 3016 1369 3016 2328 
Q 3016 3291 2770 3770 
Q 2525 4250 2034 4250 
z
M 2034 4750 
Q 2819 4750 3233 4129 
Q 3647 3509 3647 2328 
Q 3647 1150 3233 529 
Q 2819 -91 2034 -91 
Q 1250 -91 836 529 
Q 422 1150 422 2328 
Q 422 3509 836 4129 
Q 1250 4750 2034 4750 
z
" transform="scale(0.015625)"/>
        <path id="DejaVuSans-2e" d="M 684 794 
L 1344 794 
L 1344 0 
L 684 0 
L 684 794 
z
" transform="scale(0.015625)"/>
       </defs>
       <use xlink:href="#DejaVuSans-30"/>
       <use xlink:href="#DejaVuSans-2e" transform="translate(63.623047 0)"/>
       <use xlink:href="#DejaVuSans-30" transform="translate(95.410156 0)"/>
      </g>
     </g>
    </g>
    <g id="xtick_2">
     <g id="line2d_2">
      <g>
       <use xlink:href="#m9529dfa01c" x="141.067861" y="313.44625" style="stroke: #000000; stroke-width: 0.8"/>
      </g>
     </g>
     <g id="text_2">
      <!-- 0.5 -->
      <g transform="translate(133.116299 328.044687) scale(0.1 -0.1)">
       <defs>
        <path id="DejaVuSans-35" d="M 691 4666 
L 3169 4666 
L 3169 4134 
L 1269 4134 
L 1269 2991 
Q 1406 3038 1543 3061 
Q 1681 3084 1819 3084 
Q 2600 3084 3056 2656 
Q 3513 2228 3513 1497 
Q 3513 744 3044 326 
Q 2575 -91 1722 -91 
Q 1428 -91 1123 -41 
Q 819 9 494 109 
L 494 744 
Q 775 591 1075 516 
Q 1375 441 1709 441 
Q 2250 441 2565 725 
Q 2881 1009 2881 1497 
Q 2881 1984 2565 2268 
Q 2250 2553 1709 2553 
Q 1456 2553 1204 2497 
Q 953 2441 691 2322 
L 691 4666 
z
" transform="scale(0.015625)"/>
       </defs>
       <use xlink:href="#DejaVuSans-30"/>
       <use xlink:href="#DejaVuSans-2e" transform="translate(63.623047 0)"/>
       <use xlink:href="#DejaVuSans-35" transform="translate(95.410156 0)"/>
      </g>
     </g>
    </g>
    <g id="xtick_3">
     <g id="line2d_3">
      <g>
       <use xlink:href="#m9529dfa01c" x="222.445098" y="313.44625" style="stroke: #000000; stroke-width: 0.8"/>
      </g>
     </g>
     <g id="text_3">
      <!-- 1.0 -->
      <g transform="translate(214.493535 328.044687) scale(0.1 -0.1)">
       <defs>
        <path id="DejaVuSans-31" d="M 794 531 
L 1825 531 
L 1825 4091 
L 703 3866 
L 703 4441 
L 1819 4666 
L 2450 4666 
L 2450 531 
L 3481 531 
L 3481 0 
L 794 0 
L 794 531 
z
" transform="scale(0.015625)"/>
       </defs>
       <use xlink:href="#DejaVuSans-31"/>
       <use xlink:href="#DejaVuSans-2e" transform="translate(63.623047 0)"/>
       <use xlink:href="#DejaVuSans-30" transform="translate(95.410156 0)"/>
      </g>
     </g>
    </g>
    <g id="xtick_4">
     <g id="line2d_4">
      <g>
       <use xlink:href="#m9529dfa01c" x="303.822334" y="313.44625" style="stroke: #000000; stroke-width: 0.8"/>
      </g>
     </g>
     <g id="text_4">
      <!-- 1.5 -->
      <g transform="translate(295.870771 328.044687) scale(0.1 -0.1)">
       <use xlink:href="#DejaVuSans-31"/>
       <use xlink:href="#DejaVuSans-2e" transform="translate(63.623047 0)"/>
       <use xlink:href="#DejaVuSans-35" transform="translate(95.410156 0)"/>
      </g>
     </g>
    </g>
    <g id="xtick_5">
     <g id="line2d_5">
      <g>
       <use xlink:href="#m9529dfa01c" x="385.19957" y="313.44625" style="stroke: #000000; stroke-width: 0.8"/>
      </g>
     </g>
     <g id="text_5">
      <!-- 2.0 -->
      <g transform="translate(377.248008 328.044687) scale(0.1 -0.1)">
       <defs>
        <path id="DejaVuSans-32" d="M 1228 531 
L 3431 531 
L 3431 0 
L 469 0 
L 469 531 
Q 828 903 1448 1529 
Q 2069 2156 2228 2338 
Q 2531 2678 2651 2914 
Q 2772 3150 2772 3378 
Q 2772 3750 2511 3984 
Q 2250 4219 1831 4219 
Q 1534 4219 1204 4116 
Q 875 4013 500 3803 
L 500 4441 
Q 881 4594 1212 4672 
Q 1544 4750 1819 4750 
Q 2544 4750 2975 4387 
Q 3406 4025 3406 3419 
Q 3406 3131 3298 2873 
Q 3191 2616 2906 2266 
Q 2828 2175 2409 1742 
Q 1991 1309 1228 531 
z
" transform="scale(0.015625)"/>
       </defs>
       <use xlink:href="#DejaVuSans-32"/>
       <use xlink:href="#DejaVuSans-2e" transform="translate(63.623047 0)"/>
       <use xlink:href="#DejaVuSans-30" transform="translate(95.410156 0)"/>
      </g>
     </g>
    </g>
    <g id="xtick_6">
     <g id="line2d_6">
      <g>
       <use xlink:href="#m9529dfa01c" x="466.576806" y="313.44625" style="stroke: #000000; stroke-width: 0.8"/>
      </g>
     </g>
     <g id="text_6">
      <!-- 2.5 -->
      <g transform="translate(458.625244 328.044687) scale(0.1 -0.1)">
       <use xlink:href="#DejaVuSans-32"/>
       <use xlink:href="#DejaVuSans-2e" transform="translate(63.623047 0)"/>
       <use xlink:href="#DejaVuSans-35" transform="translate(95.410156 0)"/>
      </g>
     </g>
    </g>
    <g id="text_7">
     <!-- ЗП (руб) -->
     <g transform="translate(255.582188 341.893125) scale(0.1 -0.1)">
      <defs>
       <path id="DejaVuSans-417" d="M 1828 4750 
Q 2597 4750 3084 4423 
Q 3572 4097 3572 3541 
Q 3572 3153 3350 2886 
Q 3128 2619 2719 2516 
Q 3172 2419 3426 2112 
Q 3681 1806 3681 1356 
Q 3681 638 3126 273 
Q 2572 -91 1828 -91 
Q 1447 -91 1003 12 
Q 559 116 422 203 
L 422 853 
Q 900 575 1164 508 
Q 1428 441 1816 441 
Q 2403 441 2728 666 
Q 3053 891 3053 1356 
Q 3053 1769 2764 2001 
Q 2475 2234 1866 2234 
L 1228 2234 
L 1228 2753 
L 1891 2753 
Q 2450 2753 2697 2939 
Q 2944 3125 2944 3475 
Q 2944 3834 2689 4026 
Q 2434 4219 1816 4219 
Q 1397 4219 1253 4181 
Q 1109 4144 469 3903 
L 469 4519 
Q 822 4644 1190 4697 
Q 1559 4750 1828 4750 
z
" transform="scale(0.015625)"/>
       <path id="DejaVuSans-41f" d="M 4184 4666 
L 4184 0 
L 3553 0 
L 3553 4134 
L 1259 4134 
L 1259 0 
L 628 0 
L 628 4666 
L 4184 4666 
z
" transform="scale(0.015625)"/>
       <path id="DejaVuSans-20" transform="scale(0.015625)"/>
       <path id="DejaVuSans-28" d="M 1984 4856 
Q 1566 4138 1362 3434 
Q 1159 2731 1159 2009 
Q 1159 1288 1364 580 
Q 1569 -128 1984 -844 
L 1484 -844 
Q 1016 -109 783 600 
Q 550 1309 550 2009 
Q 550 2706 781 3412 
Q 1013 4119 1484 4856 
L 1984 4856 
z
" transform="scale(0.015625)"/>
       <path id="DejaVuSans-440" d="M 1159 525 
L 1159 -1331 
L 581 -1331 
L 581 3500 
L 1159 3500 
L 1159 2969 
Q 1341 3281 1617 3432 
Q 1894 3584 2278 3584 
Q 2916 3584 3314 3078 
Q 3713 2572 3713 1747 
Q 3713 922 3314 415 
Q 2916 -91 2278 -91 
Q 1894 -91 1617 61 
Q 1341 213 1159 525 
z
M 3116 1747 
Q 3116 2381 2855 2742 
Q 2594 3103 2138 3103 
Q 1681 3103 1420 2742 
Q 1159 2381 1159 1747 
Q 1159 1113 1420 752 
Q 1681 391 2138 391 
Q 2594 391 2855 752 
Q 3116 1113 3116 1747 
z
" transform="scale(0.015625)"/>
       <path id="DejaVuSans-443" d="M 2059 -325 
Q 1816 -950 1584 -1140 
Q 1353 -1331 966 -1331 
L 506 -1331 
L 506 -850 
L 844 -850 
Q 1081 -850 1212 -737 
Q 1344 -625 1503 -206 
L 1606 56 
L 191 3500 
L 800 3500 
L 1894 763 
L 2988 3500 
L 3597 3500 
L 2059 -325 
z
" transform="scale(0.015625)"/>
       <path id="DejaVuSans-431" d="M 1991 3584 
Q 2741 3584 3169 3096 
Q 3597 2609 3597 1747 
Q 3597 888 3169 398 
Q 2741 -91 1991 -91 
Q 1238 -91 822 384 
Q 406 859 384 1747 
L 366 2463 
Q 350 2834 350 2963 
Q 350 3463 531 3831 
Q 816 4409 1308 4659 
Q 1800 4909 2625 4916 
Q 3006 4919 3175 4972 
L 3334 4516 
Q 3181 4453 3041 4450 
L 2259 4397 
Q 1866 4369 1628 4231 
Q 1006 3866 947 3388 
L 925 3213 
Q 1331 3584 1991 3584 
z
M 1991 3097 
Q 1528 3097 1259 2736 
Q 991 2375 991 1747 
Q 991 1119 1258 758 
Q 1525 397 1991 397 
Q 2450 397 2719 759 
Q 2988 1122 2988 1747 
Q 2988 2369 2719 2733 
Q 2450 3097 1991 3097 
z
" transform="scale(0.015625)"/>
       <path id="DejaVuSans-29" d="M 513 4856 
L 1013 4856 
Q 1481 4119 1714 3412 
Q 1947 2706 1947 2009 
Q 1947 1309 1714 600 
Q 1481 -109 1013 -844 
L 513 -844 
Q 928 -128 1133 580 
Q 1338 1288 1338 2009 
Q 1338 2731 1133 3434 
Q 928 4138 513 4856 
z
" transform="scale(0.015625)"/>
      </defs>
      <use xlink:href="#DejaVuSans-417"/>
      <use xlink:href="#DejaVuSans-41f" transform="translate(64.111328 0)"/>
      <use xlink:href="#DejaVuSans-20" transform="translate(139.306641 0)"/>
      <use xlink:href="#DejaVuSans-28" transform="translate(171.09375 0)"/>
      <use xlink:href="#DejaVuSans-440" transform="translate(210.107422 0)"/>
      <use xlink:href="#DejaVuSans-443" transform="translate(273.583984 0)"/>
      <use xlink:href="#DejaVuSans-431" transform="translate(332.763672 0)"/>
      <use xlink:href="#DejaVuSans-29" transform="translate(394.433594 0)"/>
     </g>
    </g>
    <g id="text_8">
     <!-- 1e7 -->
     <g transform="translate(475.9425 340.722812) scale(0.1 -0.1)">
      <defs>
       <path id="DejaVuSans-65" d="M 3597 1894 
L 3597 1613 
L 953 1613 
Q 991 1019 1311 708 
Q 1631 397 2203 397 
Q 2534 397 2845 478 
Q 3156 559 3463 722 
L 3463 178 
Q 3153 47 2828 -22 
Q 2503 -91 2169 -91 
Q 1331 -91 842 396 
Q 353 884 353 1716 
Q 353 2575 817 3079 
Q 1281 3584 2069 3584 
Q 2775 3584 3186 3129 
Q 3597 2675 3597 1894 
z
M 3022 2063 
Q 3016 2534 2758 2815 
Q 2500 3097 2075 3097 
Q 1594 3097 1305 2825 
Q 1016 2553 972 2059 
L 3022 2063 
z
" transform="scale(0.015625)"/>
       <path id="DejaVuSans-37" d="M 525 4666 
L 3525 4666 
L 3525 4397 
L 1831 0 
L 1172 0 
L 2766 4134 
L 525 4134 
L 525 4666 
z
" transform="scale(0.015625)"/>
      </defs>
      <use xlink:href="#DejaVuSans-31"/>
      <use xlink:href="#DejaVuSans-65" transform="translate(63.623047 0)"/>
      <use xlink:href="#DejaVuSans-37" transform="translate(125.146484 0)"/>
     </g>
    </g>
   </g>
   <g id="matplotlib.axis_2">
    <g id="ytick_1">
     <g id="line2d_7">
      <defs>
       <path id="mceea2bdacf" d="M 0 0 
L -3.5 0 
" style="stroke: #000000; stroke-width: 0.8"/>
      </defs>
      <g>
       <use xlink:href="#mceea2bdacf" x="59.690625" y="313.44625" style="stroke: #000000; stroke-width: 0.8"/>
      </g>
     </g>
     <g id="text_9">
      <!-- 0 -->
      <g transform="translate(46.328125 317.245469) scale(0.1 -0.1)">
       <use xlink:href="#DejaVuSans-30"/>
      </g>
     </g>
    </g>
    <g id="ytick_2">
     <g id="line2d_8">
      <g>
       <use xlink:href="#mceea2bdacf" x="59.690625" y="249.740226" style="stroke: #000000; stroke-width: 0.8"/>
      </g>
     </g>
     <g id="text_10">
      <!-- 10000 -->
      <g transform="translate(20.878125 253.539445) scale(0.1 -0.1)">
       <use xlink:href="#DejaVuSans-31"/>
       <use xlink:href="#DejaVuSans-30" transform="translate(63.623047 0)"/>
       <use xlink:href="#DejaVuSans-30" transform="translate(127.246094 0)"/>
       <use xlink:href="#DejaVuSans-30" transform="translate(190.869141 0)"/>
       <use xlink:href="#DejaVuSans-30" transform="translate(254.492188 0)"/>
      </g>
     </g>
    </g>
    <g id="ytick_3">
     <g id="line2d_9">
      <g>
       <use xlink:href="#mceea2bdacf" x="59.690625" y="186.034203" style="stroke: #000000; stroke-width: 0.8"/>
      </g>
     </g>
     <g id="text_11">
      <!-- 20000 -->
      <g transform="translate(20.878125 189.833421) scale(0.1 -0.1)">
       <use xlink:href="#DejaVuSans-32"/>
       <use xlink:href="#DejaVuSans-30" transform="translate(63.623047 0)"/>
       <use xlink:href="#DejaVuSans-30" transform="translate(127.246094 0)"/>
       <use xlink:href="#DejaVuSans-30" transform="translate(190.869141 0)"/>
       <use xlink:href="#DejaVuSans-30" transform="translate(254.492188 0)"/>
      </g>
     </g>
    </g>
    <g id="ytick_4">
     <g id="line2d_10">
      <g>
       <use xlink:href="#mceea2bdacf" x="59.690625" y="122.328179" style="stroke: #000000; stroke-width: 0.8"/>
      </g>
     </g>
     <g id="text_12">
      <!-- 30000 -->
      <g transform="translate(20.878125 126.127398) scale(0.1 -0.1)">
       <defs>
        <path id="DejaVuSans-33" d="M 2597 2516 
Q 3050 2419 3304 2112 
Q 3559 1806 3559 1356 
Q 3559 666 3084 287 
Q 2609 -91 1734 -91 
Q 1441 -91 1130 -33 
Q 819 25 488 141 
L 488 750 
Q 750 597 1062 519 
Q 1375 441 1716 441 
Q 2309 441 2620 675 
Q 2931 909 2931 1356 
Q 2931 1769 2642 2001 
Q 2353 2234 1838 2234 
L 1294 2234 
L 1294 2753 
L 1863 2753 
Q 2328 2753 2575 2939 
Q 2822 3125 2822 3475 
Q 2822 3834 2567 4026 
Q 2313 4219 1838 4219 
Q 1578 4219 1281 4162 
Q 984 4106 628 3988 
L 628 4550 
Q 988 4650 1302 4700 
Q 1616 4750 1894 4750 
Q 2613 4750 3031 4423 
Q 3450 4097 3450 3541 
Q 3450 3153 3228 2886 
Q 3006 2619 2597 2516 
z
" transform="scale(0.015625)"/>
       </defs>
       <use xlink:href="#DejaVuSans-33"/>
       <use xlink:href="#DejaVuSans-30" transform="translate(63.623047 0)"/>
       <use xlink:href="#DejaVuSans-30" transform="translate(127.246094 0)"/>
       <use xlink:href="#DejaVuSans-30" transform="translate(190.869141 0)"/>
       <use xlink:href="#DejaVuSans-30" transform="translate(254.492188 0)"/>
      </g>
     </g>
    </g>
    <g id="ytick_5">
     <g id="line2d_11">
      <g>
       <use xlink:href="#mceea2bdacf" x="59.690625" y="58.622155" style="stroke: #000000; stroke-width: 0.8"/>
      </g>
     </g>
     <g id="text_13">
      <!-- 40000 -->
      <g transform="translate(20.878125 62.421374) scale(0.1 -0.1)">
       <defs>
        <path id="DejaVuSans-34" d="M 2419 4116 
L 825 1625 
L 2419 1625 
L 2419 4116 
z
M 2253 4666 
L 3047 4666 
L 3047 1625 
L 3713 1625 
L 3713 1100 
L 3047 1100 
L 3047 0 
L 2419 0 
L 2419 1100 
L 313 1100 
L 313 1709 
L 2253 4666 
z
" transform="scale(0.015625)"/>
       </defs>
       <use xlink:href="#DejaVuSans-34"/>
       <use xlink:href="#DejaVuSans-30" transform="translate(63.623047 0)"/>
       <use xlink:href="#DejaVuSans-30" transform="translate(127.246094 0)"/>
       <use xlink:href="#DejaVuSans-30" transform="translate(190.869141 0)"/>
       <use xlink:href="#DejaVuSans-30" transform="translate(254.492188 0)"/>
      </g>
     </g>
    </g>
    <g id="text_14">
     <!-- Частота -->
     <g transform="translate(14.798438 189.174219) rotate(-90) scale(0.1 -0.1)">
      <defs>
       <path id="DejaVuSans-427" d="M 3125 0 
L 3125 1913 
L 1822 1913 
Q 1241 1913 894 2277 
Q 547 2641 547 3384 
L 547 4666 
L 1175 4666 
L 1175 3434 
Q 1175 2938 1369 2691 
Q 1563 2444 1950 2444 
L 3125 2444 
L 3125 4666 
L 3759 4666 
L 3759 0 
L 3125 0 
z
" transform="scale(0.015625)"/>
       <path id="DejaVuSans-430" d="M 2194 1759 
Q 1497 1759 1228 1600 
Q 959 1441 959 1056 
Q 959 750 1161 570 
Q 1363 391 1709 391 
Q 2188 391 2477 730 
Q 2766 1069 2766 1631 
L 2766 1759 
L 2194 1759 
z
M 3341 1997 
L 3341 0 
L 2766 0 
L 2766 531 
Q 2569 213 2275 61 
Q 1981 -91 1556 -91 
Q 1019 -91 701 211 
Q 384 513 384 1019 
Q 384 1609 779 1909 
Q 1175 2209 1959 2209 
L 2766 2209 
L 2766 2266 
Q 2766 2663 2505 2880 
Q 2244 3097 1772 3097 
Q 1472 3097 1187 3025 
Q 903 2953 641 2809 
L 641 3341 
Q 956 3463 1253 3523 
Q 1550 3584 1831 3584 
Q 2591 3584 2966 3190 
Q 3341 2797 3341 1997 
z
" transform="scale(0.015625)"/>
       <path id="DejaVuSans-441" d="M 3122 3366 
L 3122 2828 
Q 2878 2963 2633 3030 
Q 2388 3097 2138 3097 
Q 1578 3097 1268 2742 
Q 959 2388 959 1747 
Q 959 1106 1268 751 
Q 1578 397 2138 397 
Q 2388 397 2633 464 
Q 2878 531 3122 666 
L 3122 134 
Q 2881 22 2623 -34 
Q 2366 -91 2075 -91 
Q 1284 -91 818 406 
Q 353 903 353 1747 
Q 353 2603 823 3093 
Q 1294 3584 2113 3584 
Q 2378 3584 2631 3529 
Q 2884 3475 3122 3366 
z
" transform="scale(0.015625)"/>
       <path id="DejaVuSans-442" d="M 188 3500 
L 3541 3500 
L 3541 3041 
L 2147 3041 
L 2147 0 
L 1581 0 
L 1581 3041 
L 188 3041 
L 188 3500 
z
" transform="scale(0.015625)"/>
       <path id="DejaVuSans-43e" d="M 1959 3097 
Q 1497 3097 1228 2736 
Q 959 2375 959 1747 
Q 959 1119 1226 758 
Q 1494 397 1959 397 
Q 2419 397 2687 759 
Q 2956 1122 2956 1747 
Q 2956 2369 2687 2733 
Q 2419 3097 1959 3097 
z
M 1959 3584 
Q 2709 3584 3137 3096 
Q 3566 2609 3566 1747 
Q 3566 888 3137 398 
Q 2709 -91 1959 -91 
Q 1206 -91 779 398 
Q 353 888 353 1747 
Q 353 2609 779 3096 
Q 1206 3584 1959 3584 
z
" transform="scale(0.015625)"/>
      </defs>
      <use xlink:href="#DejaVuSans-427"/>
      <use xlink:href="#DejaVuSans-430" transform="translate(68.554688 0)"/>
      <use xlink:href="#DejaVuSans-441" transform="translate(129.833984 0)"/>
      <use xlink:href="#DejaVuSans-442" transform="translate(184.814453 0)"/>
      <use xlink:href="#DejaVuSans-43e" transform="translate(243.066406 0)"/>
      <use xlink:href="#DejaVuSans-442" transform="translate(304.248047 0)"/>
      <use xlink:href="#DejaVuSans-430" transform="translate(362.5 0)"/>
     </g>
    </g>
   </g>
   <g id="line2d_12">
    <path d="M 75.966072 313.44625 
L 75.966072 22.5225 
" clip-path="url(#p0165d73c0e)" style="fill: none; stroke-dasharray: 7.4,3.2; stroke-dashoffset: 0; stroke: #ff0000; stroke-width: 2"/>
   </g>
   <g id="patch_103">
    <path d="M 59.690625 313.44625 
L 59.690625 22.5225 
" style="fill: none; stroke: #000000; stroke-width: 0.8; stroke-linejoin: miter; stroke-linecap: square"/>
   </g>
   <g id="patch_104">
    <path d="M 494.820625 313.44625 
L 494.820625 22.5225 
" style="fill: none; stroke: #000000; stroke-width: 0.8; stroke-linejoin: miter; stroke-linecap: square"/>
   </g>
   <g id="patch_105">
    <path d="M 59.690625 313.44625 
L 494.820625 313.44625 
" style="fill: none; stroke: #000000; stroke-width: 0.8; stroke-linejoin: miter; stroke-linecap: square"/>
   </g>
   <g id="patch_106">
    <path d="M 59.690625 22.5225 
L 494.820625 22.5225 
" style="fill: none; stroke: #000000; stroke-width: 0.8; stroke-linejoin: miter; stroke-linecap: square"/>
   </g>
   <g id="text_15">
    <!-- Гистограмма распределения ЗП (все данные) -->
    <g transform="translate(131.5625 16.5225) scale(0.12 -0.12)">
     <defs>
      <path id="DejaVuSans-413" d="M 628 0 
L 628 4666 
L 3531 4666 
L 3531 4134 
L 1259 4134 
L 1259 0 
L 628 0 
z
" transform="scale(0.015625)"/>
      <path id="DejaVuSans-438" d="M 3578 3500 
L 3578 0 
L 3006 0 
L 3006 2809 
L 1319 0 
L 581 0 
L 581 3500 
L 1153 3500 
L 1153 697 
L 2838 3500 
L 3578 3500 
z
" transform="scale(0.015625)"/>
      <path id="DejaVuSans-433" d="M 581 0 
L 581 3500 
L 3050 3500 
L 3050 3041 
L 1159 3041 
L 1159 0 
L 581 0 
z
" transform="scale(0.015625)"/>
      <path id="DejaVuSans-43c" d="M 581 3500 
L 1422 3500 
L 2416 1156 
L 3413 3500 
L 4247 3500 
L 4247 0 
L 3669 0 
L 3669 2950 
L 2703 672 
L 2128 672 
L 1159 2950 
L 1159 0 
L 581 0 
L 581 3500 
z
" transform="scale(0.015625)"/>
      <path id="DejaVuSans-43f" d="M 3603 3500 
L 3603 0 
L 3025 0 
L 3025 3041 
L 1159 3041 
L 1159 0 
L 581 0 
L 581 3500 
L 3603 3500 
z
" transform="scale(0.015625)"/>
      <path id="DejaVuSans-435" d="M 3597 1894 
L 3597 1613 
L 953 1613 
Q 991 1019 1311 708 
Q 1631 397 2203 397 
Q 2534 397 2845 478 
Q 3156 559 3463 722 
L 3463 178 
Q 3153 47 2828 -22 
Q 2503 -91 2169 -91 
Q 1331 -91 842 396 
Q 353 884 353 1716 
Q 353 2575 817 3079 
Q 1281 3584 2069 3584 
Q 2775 3584 3186 3129 
Q 3597 2675 3597 1894 
z
M 3022 2063 
Q 3016 2534 2758 2815 
Q 2500 3097 2075 3097 
Q 1594 3097 1305 2825 
Q 1016 2553 972 2059 
L 3022 2063 
z
" transform="scale(0.015625)"/>
      <path id="DejaVuSans-434" d="M 1384 459 
L 3053 459 
L 3053 3041 
L 1844 3041 
L 1844 2603 
Q 1844 1316 1475 628 
L 1384 459 
z
M 550 459 
Q 834 584 959 850 
Q 1266 1509 1266 2838 
L 1266 3500 
L 3631 3500 
L 3631 459 
L 4091 459 
L 4091 -884 
L 3631 -884 
L 3631 0 
L 794 0 
L 794 -884 
L 334 -884 
L 334 459 
L 550 459 
z
" transform="scale(0.015625)"/>
      <path id="DejaVuSans-43b" d="M 238 0 
L 238 478 
Q 806 566 981 959 
Q 1194 1513 1194 2928 
L 1194 3500 
L 3559 3500 
L 3559 0 
L 2984 0 
L 2984 3041 
L 1769 3041 
L 1769 2694 
Q 1769 1344 1494 738 
Q 1200 91 238 0 
z
" transform="scale(0.015625)"/>
      <path id="DejaVuSans-43d" d="M 581 3500 
L 1159 3500 
L 1159 2072 
L 3025 2072 
L 3025 3500 
L 3603 3500 
L 3603 0 
L 3025 0 
L 3025 1613 
L 1159 1613 
L 1159 0 
L 581 0 
L 581 3500 
z
" transform="scale(0.015625)"/>
      <path id="DejaVuSans-44f" d="M 1181 2491 
Q 1181 2231 1381 2084 
Q 1581 1938 1953 1938 
L 2728 1938 
L 2728 3041 
L 1953 3041 
Q 1581 3041 1381 2897 
Q 1181 2753 1181 2491 
z
M 363 0 
L 1431 1534 
Q 1069 1616 828 1830 
Q 588 2044 588 2491 
Q 588 2997 923 3248 
Q 1259 3500 1938 3500 
L 3306 3500 
L 3306 0 
L 2728 0 
L 2728 1478 
L 2013 1478 
L 981 0 
L 363 0 
z
" transform="scale(0.015625)"/>
      <path id="DejaVuSans-432" d="M 1156 1613 
L 1156 459 
L 1975 459 
Q 2369 459 2575 607 
Q 2781 756 2781 1038 
Q 2781 1319 2575 1466 
Q 2369 1613 1975 1613 
L 1156 1613 
z
M 1156 3041 
L 1156 2072 
L 1913 2072 
Q 2238 2072 2444 2201 
Q 2650 2331 2650 2563 
Q 2650 2794 2444 2917 
Q 2238 3041 1913 3041 
L 1156 3041 
z
M 581 3500 
L 1950 3500 
Q 2566 3500 2897 3275 
Q 3228 3050 3228 2634 
Q 3228 2313 3059 2123 
Q 2891 1934 2559 1888 
Q 2956 1813 3175 1575 
Q 3394 1338 3394 981 
Q 3394 513 3033 256 
Q 2672 0 2003 0 
L 581 0 
L 581 3500 
z
" transform="scale(0.015625)"/>
      <path id="DejaVuSans-44b" d="M 3907 3500 
L 4482 3500 
L 4482 0 
L 3907 0 
L 3907 3500 
z
M 4195 3584 
L 4195 3584 
z
M 2781 1038 
Q 2781 1319 2576 1466 
Q 2372 1613 1978 1613 
L 1159 1613 
L 1159 459 
L 1978 459 
Q 2372 459 2576 607 
Q 2781 756 2781 1038 
z
M 581 3500 
L 1159 3500 
L 1159 2072 
L 2003 2072 
Q 2672 2072 3033 1817 
Q 3394 1563 3394 1038 
Q 3394 513 3033 256 
Q 2672 0 2003 0 
L 581 0 
L 581 3500 
z
" transform="scale(0.015625)"/>
     </defs>
     <use xlink:href="#DejaVuSans-413"/>
     <use xlink:href="#DejaVuSans-438" transform="translate(60.986328 0)"/>
     <use xlink:href="#DejaVuSans-441" transform="translate(125.976562 0)"/>
     <use xlink:href="#DejaVuSans-442" transform="translate(180.957031 0)"/>
     <use xlink:href="#DejaVuSans-43e" transform="translate(239.208984 0)"/>
     <use xlink:href="#DejaVuSans-433" transform="translate(300.390625 0)"/>
     <use xlink:href="#DejaVuSans-440" transform="translate(352.929688 0)"/>
     <use xlink:href="#DejaVuSans-430" transform="translate(416.40625 0)"/>
     <use xlink:href="#DejaVuSans-43c" transform="translate(477.685547 0)"/>
     <use xlink:href="#DejaVuSans-43c" transform="translate(553.125 0)"/>
     <use xlink:href="#DejaVuSans-430" transform="translate(628.564453 0)"/>
     <use xlink:href="#DejaVuSans-20" transform="translate(689.84375 0)"/>
     <use xlink:href="#DejaVuSans-440" transform="translate(721.630859 0)"/>
     <use xlink:href="#DejaVuSans-430" transform="translate(785.107422 0)"/>
     <use xlink:href="#DejaVuSans-441" transform="translate(846.386719 0)"/>
     <use xlink:href="#DejaVuSans-43f" transform="translate(901.367188 0)"/>
     <use xlink:href="#DejaVuSans-440" transform="translate(966.748047 0)"/>
     <use xlink:href="#DejaVuSans-435" transform="translate(1030.224609 0)"/>
     <use xlink:href="#DejaVuSans-434" transform="translate(1091.748047 0)"/>
     <use xlink:href="#DejaVuSans-435" transform="translate(1160.888672 0)"/>
     <use xlink:href="#DejaVuSans-43b" transform="translate(1222.412109 0)"/>
     <use xlink:href="#DejaVuSans-435" transform="translate(1286.328125 0)"/>
     <use xlink:href="#DejaVuSans-43d" transform="translate(1347.851562 0)"/>
     <use xlink:href="#DejaVuSans-438" transform="translate(1413.232422 0)"/>
     <use xlink:href="#DejaVuSans-44f" transform="translate(1478.222656 0)"/>
     <use xlink:href="#DejaVuSans-20" transform="translate(1538.378906 0)"/>
     <use xlink:href="#DejaVuSans-417" transform="translate(1570.166016 0)"/>
     <use xlink:href="#DejaVuSans-41f" transform="translate(1634.277344 0)"/>
     <use xlink:href="#DejaVuSans-20" transform="translate(1709.472656 0)"/>
     <use xlink:href="#DejaVuSans-28" transform="translate(1741.259766 0)"/>
     <use xlink:href="#DejaVuSans-432" transform="translate(1780.273438 0)"/>
     <use xlink:href="#DejaVuSans-441" transform="translate(1839.208984 0)"/>
     <use xlink:href="#DejaVuSans-435" transform="translate(1894.189453 0)"/>
     <use xlink:href="#DejaVuSans-20" transform="translate(1955.712891 0)"/>
     <use xlink:href="#DejaVuSans-434" transform="translate(1987.5 0)"/>
     <use xlink:href="#DejaVuSans-430" transform="translate(2056.640625 0)"/>
     <use xlink:href="#DejaVuSans-43d" transform="translate(2117.919922 0)"/>
     <use xlink:href="#DejaVuSans-43d" transform="translate(2183.300781 0)"/>
     <use xlink:href="#DejaVuSans-44b" transform="translate(2248.681641 0)"/>
     <use xlink:href="#DejaVuSans-435" transform="translate(2327.636719 0)"/>
     <use xlink:href="#DejaVuSans-29" transform="translate(2389.160156 0)"/>
    </g>
   </g>
   <g id="legend_1">
    <g id="patch_107">
     <path d="M 401.015938 45.370937 
L 487.820625 45.370937 
Q 489.820625 45.370937 489.820625 43.370937 
L 489.820625 29.5225 
Q 489.820625 27.5225 487.820625 27.5225 
L 401.015938 27.5225 
Q 399.015938 27.5225 399.015938 29.5225 
L 399.015938 43.370937 
Q 399.015938 45.370937 401.015938 45.370937 
z
" style="fill: #ffffff; opacity: 0.8; stroke: #cccccc; stroke-linejoin: miter"/>
    </g>
    <g id="line2d_13">
     <path d="M 403.015938 35.79125 
L 413.015938 35.79125 
L 423.015938 35.79125 
" style="fill: none; stroke-dasharray: 7.4,3.2; stroke-dashoffset: 0; stroke: #ff0000; stroke-width: 2"/>
    </g>
    <g id="text_16">
     <!-- 1 млн руб. -->
     <g transform="translate(431.015938 39.29125) scale(0.1 -0.1)">
      <use xlink:href="#DejaVuSans-31"/>
      <use xlink:href="#DejaVuSans-20" transform="translate(63.623047 0)"/>
      <use xlink:href="#DejaVuSans-43c" transform="translate(95.410156 0)"/>
      <use xlink:href="#DejaVuSans-43b" transform="translate(170.849609 0)"/>
      <use xlink:href="#DejaVuSans-43d" transform="translate(234.765625 0)"/>
      <use xlink:href="#DejaVuSans-20" transform="translate(300.146484 0)"/>
      <use xlink:href="#DejaVuSans-440" transform="translate(331.933594 0)"/>
      <use xlink:href="#DejaVuSans-443" transform="translate(395.410156 0)"/>
      <use xlink:href="#DejaVuSans-431" transform="translate(454.589844 0)"/>
      <use xlink:href="#DejaVuSans-2e" transform="translate(516.259766 0)"/>
     </g>
    </g>
   </g>
  </g>
  <g id="axes_2">
   <g id="patch_108">
    <path d="M 558.290625 313.44625 
L 993.420625 313.44625 
L 993.420625 22.5225 
L 558.290625 22.5225 
z
" style="fill: #ffffff"/>
   </g>
   <g id="patch_109">
    <path d="M 578.069261 313.44625 
L 585.980716 313.44625 
L 585.980716 284.844492 
L 578.069261 284.844492 
z
" clip-path="url(#pc4d02e6716)" style="fill: #4682b4; opacity: 0.7; stroke: #000000; stroke-linejoin: miter"/>
   </g>
   <g id="patch_110">
    <path d="M 585.980716 313.44625 
L 593.89217 313.44625 
L 593.89217 66.340939 
L 585.980716 66.340939 
z
" clip-path="url(#pc4d02e6716)" style="fill: #4682b4; opacity: 0.7; stroke: #000000; stroke-linejoin: miter"/>
   </g>
   <g id="patch_111">
    <path d="M 593.89217 313.44625 
L 601.803625 313.44625 
L 601.803625 36.376012 
L 593.89217 36.376012 
z
" clip-path="url(#pc4d02e6716)" style="fill: #4682b4; opacity: 0.7; stroke: #000000; stroke-linejoin: miter"/>
   </g>
   <g id="patch_112">
    <path d="M 601.803625 313.44625 
L 609.71508 313.44625 
L 609.71508 147.610579 
L 601.803625 147.610579 
z
" clip-path="url(#pc4d02e6716)" style="fill: #4682b4; opacity: 0.7; stroke: #000000; stroke-linejoin: miter"/>
   </g>
   <g id="patch_113">
    <path d="M 609.71508 313.44625 
L 617.626534 313.44625 
L 617.626534 200.898084 
L 609.71508 200.898084 
z
" clip-path="url(#pc4d02e6716)" style="fill: #4682b4; opacity: 0.7; stroke: #000000; stroke-linejoin: miter"/>
   </g>
   <g id="patch_114">
    <path d="M 617.626534 313.44625 
L 625.537989 313.44625 
L 625.537989 238.025843 
L 617.626534 238.025843 
z
" clip-path="url(#pc4d02e6716)" style="fill: #4682b4; opacity: 0.7; stroke: #000000; stroke-linejoin: miter"/>
   </g>
   <g id="patch_115">
    <path d="M 625.537989 313.44625 
L 633.449443 313.44625 
L 633.449443 274.707474 
L 625.537989 274.707474 
z
" clip-path="url(#pc4d02e6716)" style="fill: #4682b4; opacity: 0.7; stroke: #000000; stroke-linejoin: miter"/>
   </g>
   <g id="patch_116">
    <path d="M 633.449443 313.44625 
L 641.360898 313.44625 
L 641.360898 284.1753 
L 633.449443 284.1753 
z
" clip-path="url(#pc4d02e6716)" style="fill: #4682b4; opacity: 0.7; stroke: #000000; stroke-linejoin: miter"/>
   </g>
   <g id="patch_117">
    <path d="M 641.360898 313.44625 
L 649.272352 313.44625 
L 649.272352 269.477863 
L 641.360898 269.477863 
z
" clip-path="url(#pc4d02e6716)" style="fill: #4682b4; opacity: 0.7; stroke: #000000; stroke-linejoin: miter"/>
   </g>
   <g id="patch_118">
    <path d="M 649.272352 313.44625 
L 657.183807 313.44625 
L 657.183807 291.932969 
L 649.272352 291.932969 
z
" clip-path="url(#pc4d02e6716)" style="fill: #4682b4; opacity: 0.7; stroke: #000000; stroke-linejoin: miter"/>
   </g>
   <g id="patch_119">
    <path d="M 657.183807 313.44625 
L 665.095261 313.44625 
L 665.095261 286.40594 
L 657.183807 286.40594 
z
" clip-path="url(#pc4d02e6716)" style="fill: #4682b4; opacity: 0.7; stroke: #000000; stroke-linejoin: miter"/>
   </g>
   <g id="patch_120">
    <path d="M 665.095261 313.44625 
L 673.006716 313.44625 
L 673.006716 307.646587 
L 665.095261 307.646587 
z
" clip-path="url(#pc4d02e6716)" style="fill: #4682b4; opacity: 0.7; stroke: #000000; stroke-linejoin: miter"/>
   </g>
   <g id="patch_121">
    <path d="M 673.006716 313.44625 
L 680.91817 313.44625 
L 680.91817 308.414918 
L 673.006716 308.414918 
z
" clip-path="url(#pc4d02e6716)" style="fill: #4682b4; opacity: 0.7; stroke: #000000; stroke-linejoin: miter"/>
   </g>
   <g id="patch_122">
    <path d="M 680.91817 313.44625 
L 688.829625 313.44625 
L 688.829625 301.202516 
L 680.91817 301.202516 
z
" clip-path="url(#pc4d02e6716)" style="fill: #4682b4; opacity: 0.7; stroke: #000000; stroke-linejoin: miter"/>
   </g>
   <g id="patch_123">
    <path d="M 688.829625 313.44625 
L 696.74108 313.44625 
L 696.74108 311.116471 
L 688.829625 311.116471 
z
" clip-path="url(#pc4d02e6716)" style="fill: #4682b4; opacity: 0.7; stroke: #000000; stroke-linejoin: miter"/>
   </g>
   <g id="patch_124">
    <path d="M 696.74108 313.44625 
L 704.652534 313.44625 
L 704.652534 311.785663 
L 696.74108 311.785663 
z
" clip-path="url(#pc4d02e6716)" style="fill: #4682b4; opacity: 0.7; stroke: #000000; stroke-linejoin: miter"/>
   </g>
   <g id="patch_125">
    <path d="M 704.652534 313.44625 
L 712.563989 313.44625 
L 712.563989 306.729546 
L 704.652534 306.729546 
z
" clip-path="url(#pc4d02e6716)" style="fill: #4682b4; opacity: 0.7; stroke: #000000; stroke-linejoin: miter"/>
   </g>
   <g id="patch_126">
    <path d="M 712.563989 313.44625 
L 720.475443 313.44625 
L 720.475443 312.454855 
L 712.563989 312.454855 
z
" clip-path="url(#pc4d02e6716)" style="fill: #4682b4; opacity: 0.7; stroke: #000000; stroke-linejoin: miter"/>
   </g>
   <g id="patch_127">
    <path d="M 720.475443 313.44625 
L 728.386898 313.44625 
L 728.386898 310.472064 
L 720.475443 310.472064 
z
" clip-path="url(#pc4d02e6716)" style="fill: #4682b4; opacity: 0.7; stroke: #000000; stroke-linejoin: miter"/>
   </g>
   <g id="patch_128">
    <path d="M 728.386898 313.44625 
L 736.298352 313.44625 
L 736.298352 313.049692 
L 728.386898 313.049692 
z
" clip-path="url(#pc4d02e6716)" style="fill: #4682b4; opacity: 0.7; stroke: #000000; stroke-linejoin: miter"/>
   </g>
   <g id="patch_129">
    <path d="M 736.298352 313.44625 
L 744.209807 313.44625 
L 744.209807 313.049692 
L 736.298352 313.049692 
z
" clip-path="url(#pc4d02e6716)" style="fill: #4682b4; opacity: 0.7; stroke: #000000; stroke-linejoin: miter"/>
   </g>
   <g id="patch_130">
    <path d="M 744.209807 313.44625 
L 752.121261 313.44625 
L 752.121261 311.959157 
L 744.209807 311.959157 
z
" clip-path="url(#pc4d02e6716)" style="fill: #4682b4; opacity: 0.7; stroke: #000000; stroke-linejoin: miter"/>
   </g>
   <g id="patch_131">
    <path d="M 752.121261 313.44625 
L 760.032716 313.44625 
L 760.032716 313.421465 
L 752.121261 313.421465 
z
" clip-path="url(#pc4d02e6716)" style="fill: #4682b4; opacity: 0.7; stroke: #000000; stroke-linejoin: miter"/>
   </g>
   <g id="patch_132">
    <path d="M 760.032716 313.44625 
L 767.94417 313.44625 
L 767.94417 313.421465 
L 760.032716 313.421465 
z
" clip-path="url(#pc4d02e6716)" style="fill: #4682b4; opacity: 0.7; stroke: #000000; stroke-linejoin: miter"/>
   </g>
   <g id="patch_133">
    <path d="M 767.94417 313.44625 
L 775.855625 313.44625 
L 775.855625 313.024907 
L 767.94417 313.024907 
z
" clip-path="url(#pc4d02e6716)" style="fill: #4682b4; opacity: 0.7; stroke: #000000; stroke-linejoin: miter"/>
   </g>
   <g id="patch_134">
    <path d="M 775.855625 313.44625 
L 783.76708 313.44625 
L 783.76708 313.39668 
L 775.855625 313.39668 
z
" clip-path="url(#pc4d02e6716)" style="fill: #4682b4; opacity: 0.7; stroke: #000000; stroke-linejoin: miter"/>
   </g>
   <g id="patch_135">
    <path d="M 783.76708 313.44625 
L 791.678534 313.44625 
L 791.678534 313.44625 
L 783.76708 313.44625 
z
" clip-path="url(#pc4d02e6716)" style="fill: #4682b4; opacity: 0.7; stroke: #000000; stroke-linejoin: miter"/>
   </g>
   <g id="patch_136">
    <path d="M 791.678534 313.44625 
L 799.589989 313.44625 
L 799.589989 312.851413 
L 791.678534 312.851413 
z
" clip-path="url(#pc4d02e6716)" style="fill: #4682b4; opacity: 0.7; stroke: #000000; stroke-linejoin: miter"/>
   </g>
   <g id="patch_137">
    <path d="M 799.589989 313.44625 
L 807.501443 313.44625 
L 807.501443 313.421465 
L 799.589989 313.421465 
z
" clip-path="url(#pc4d02e6716)" style="fill: #4682b4; opacity: 0.7; stroke: #000000; stroke-linejoin: miter"/>
   </g>
   <g id="patch_138">
    <path d="M 807.501443 313.44625 
L 815.412898 313.44625 
L 815.412898 313.44625 
L 807.501443 313.44625 
z
" clip-path="url(#pc4d02e6716)" style="fill: #4682b4; opacity: 0.7; stroke: #000000; stroke-linejoin: miter"/>
   </g>
   <g id="patch_139">
    <path d="M 815.412898 313.44625 
L 823.324352 313.44625 
L 823.324352 313.421465 
L 815.412898 313.421465 
z
" clip-path="url(#pc4d02e6716)" style="fill: #4682b4; opacity: 0.7; stroke: #000000; stroke-linejoin: miter"/>
   </g>
   <g id="patch_140">
    <path d="M 823.324352 313.44625 
L 831.235807 313.44625 
L 831.235807 313.371895 
L 823.324352 313.371895 
z
" clip-path="url(#pc4d02e6716)" style="fill: #4682b4; opacity: 0.7; stroke: #000000; stroke-linejoin: miter"/>
   </g>
   <g id="patch_141">
    <path d="M 831.235807 313.44625 
L 839.147261 313.44625 
L 839.147261 313.322326 
L 831.235807 313.322326 
z
" clip-path="url(#pc4d02e6716)" style="fill: #4682b4; opacity: 0.7; stroke: #000000; stroke-linejoin: miter"/>
   </g>
   <g id="patch_142">
    <path d="M 839.147261 313.44625 
L 847.058716 313.44625 
L 847.058716 313.44625 
L 839.147261 313.44625 
z
" clip-path="url(#pc4d02e6716)" style="fill: #4682b4; opacity: 0.7; stroke: #000000; stroke-linejoin: miter"/>
   </g>
   <g id="patch_143">
    <path d="M 847.058716 313.44625 
L 854.97017 313.44625 
L 854.97017 313.371895 
L 847.058716 313.371895 
z
" clip-path="url(#pc4d02e6716)" style="fill: #4682b4; opacity: 0.7; stroke: #000000; stroke-linejoin: miter"/>
   </g>
   <g id="patch_144">
    <path d="M 854.97017 313.44625 
L 862.881625 313.44625 
L 862.881625 313.39668 
L 854.97017 313.39668 
z
" clip-path="url(#pc4d02e6716)" style="fill: #4682b4; opacity: 0.7; stroke: #000000; stroke-linejoin: miter"/>
   </g>
   <g id="patch_145">
    <path d="M 862.881625 313.44625 
L 870.79308 313.44625 
L 870.79308 313.44625 
L 862.881625 313.44625 
z
" clip-path="url(#pc4d02e6716)" style="fill: #4682b4; opacity: 0.7; stroke: #000000; stroke-linejoin: miter"/>
   </g>
   <g id="patch_146">
    <path d="M 870.79308 313.44625 
L 878.704534 313.44625 
L 878.704534 313.371895 
L 870.79308 313.371895 
z
" clip-path="url(#pc4d02e6716)" style="fill: #4682b4; opacity: 0.7; stroke: #000000; stroke-linejoin: miter"/>
   </g>
   <g id="patch_147">
    <path d="M 878.704534 313.44625 
L 886.615989 313.44625 
L 886.615989 313.44625 
L 878.704534 313.44625 
z
" clip-path="url(#pc4d02e6716)" style="fill: #4682b4; opacity: 0.7; stroke: #000000; stroke-linejoin: miter"/>
   </g>
   <g id="patch_148">
    <path d="M 886.615989 313.44625 
L 894.527443 313.44625 
L 894.527443 313.421465 
L 886.615989 313.421465 
z
" clip-path="url(#pc4d02e6716)" style="fill: #4682b4; opacity: 0.7; stroke: #000000; stroke-linejoin: miter"/>
   </g>
   <g id="patch_149">
    <path d="M 894.527443 313.44625 
L 902.438898 313.44625 
L 902.438898 313.421465 
L 894.527443 313.421465 
z
" clip-path="url(#pc4d02e6716)" style="fill: #4682b4; opacity: 0.7; stroke: #000000; stroke-linejoin: miter"/>
   </g>
   <g id="patch_150">
    <path d="M 902.438898 313.44625 
L 910.350352 313.44625 
L 910.350352 313.44625 
L 902.438898 313.44625 
z
" clip-path="url(#pc4d02e6716)" style="fill: #4682b4; opacity: 0.7; stroke: #000000; stroke-linejoin: miter"/>
   </g>
   <g id="patch_151">
    <path d="M 910.350352 313.44625 
L 918.261807 313.44625 
L 918.261807 313.44625 
L 910.350352 313.44625 
z
" clip-path="url(#pc4d02e6716)" style="fill: #4682b4; opacity: 0.7; stroke: #000000; stroke-linejoin: miter"/>
   </g>
   <g id="patch_152">
    <path d="M 918.261807 313.44625 
L 926.173261 313.44625 
L 926.173261 313.421465 
L 918.261807 313.421465 
z
" clip-path="url(#pc4d02e6716)" style="fill: #4682b4; opacity: 0.7; stroke: #000000; stroke-linejoin: miter"/>
   </g>
   <g id="patch_153">
    <path d="M 926.173261 313.44625 
L 934.084716 313.44625 
L 934.084716 313.44625 
L 926.173261 313.44625 
z
" clip-path="url(#pc4d02e6716)" style="fill: #4682b4; opacity: 0.7; stroke: #000000; stroke-linejoin: miter"/>
   </g>
   <g id="patch_154">
    <path d="M 934.084716 313.44625 
L 941.99617 313.44625 
L 941.99617 313.44625 
L 934.084716 313.44625 
z
" clip-path="url(#pc4d02e6716)" style="fill: #4682b4; opacity: 0.7; stroke: #000000; stroke-linejoin: miter"/>
   </g>
   <g id="patch_155">
    <path d="M 941.99617 313.44625 
L 949.907625 313.44625 
L 949.907625 313.44625 
L 941.99617 313.44625 
z
" clip-path="url(#pc4d02e6716)" style="fill: #4682b4; opacity: 0.7; stroke: #000000; stroke-linejoin: miter"/>
   </g>
   <g id="patch_156">
    <path d="M 949.907625 313.44625 
L 957.81908 313.44625 
L 957.81908 313.44625 
L 949.907625 313.44625 
z
" clip-path="url(#pc4d02e6716)" style="fill: #4682b4; opacity: 0.7; stroke: #000000; stroke-linejoin: miter"/>
   </g>
   <g id="patch_157">
    <path d="M 957.81908 313.44625 
L 965.730534 313.44625 
L 965.730534 313.421465 
L 957.81908 313.421465 
z
" clip-path="url(#pc4d02e6716)" style="fill: #4682b4; opacity: 0.7; stroke: #000000; stroke-linejoin: miter"/>
   </g>
   <g id="patch_158">
    <path d="M 965.730534 313.44625 
L 973.641989 313.44625 
L 973.641989 313.421465 
L 965.730534 313.421465 
z
" clip-path="url(#pc4d02e6716)" style="fill: #4682b4; opacity: 0.7; stroke: #000000; stroke-linejoin: miter"/>
   </g>
   <g id="matplotlib.axis_3">
    <g id="xtick_7">
     <g id="line2d_14">
      <g>
       <use xlink:href="#m9529dfa01c" x="578.068833" y="313.44625" style="stroke: #000000; stroke-width: 0.8"/>
      </g>
     </g>
     <g id="text_17">
      <!-- 0 -->
      <g transform="translate(574.887583 328.044687) scale(0.1 -0.1)">
       <use xlink:href="#DejaVuSans-30"/>
      </g>
     </g>
    </g>
    <g id="xtick_8">
     <g id="line2d_15">
      <g>
       <use xlink:href="#m9529dfa01c" x="663.692304" y="313.44625" style="stroke: #000000; stroke-width: 0.8"/>
      </g>
     </g>
     <g id="text_18">
      <!-- 200000 -->
      <g transform="translate(644.604804 328.044687) scale(0.1 -0.1)">
       <use xlink:href="#DejaVuSans-32"/>
       <use xlink:href="#DejaVuSans-30" transform="translate(63.623047 0)"/>
       <use xlink:href="#DejaVuSans-30" transform="translate(127.246094 0)"/>
       <use xlink:href="#DejaVuSans-30" transform="translate(190.869141 0)"/>
       <use xlink:href="#DejaVuSans-30" transform="translate(254.492188 0)"/>
       <use xlink:href="#DejaVuSans-30" transform="translate(318.115234 0)"/>
      </g>
     </g>
    </g>
    <g id="xtick_9">
     <g id="line2d_16">
      <g>
       <use xlink:href="#m9529dfa01c" x="749.315774" y="313.44625" style="stroke: #000000; stroke-width: 0.8"/>
      </g>
     </g>
     <g id="text_19">
      <!-- 400000 -->
      <g transform="translate(730.228274 328.044687) scale(0.1 -0.1)">
       <use xlink:href="#DejaVuSans-34"/>
       <use xlink:href="#DejaVuSans-30" transform="translate(63.623047 0)"/>
       <use xlink:href="#DejaVuSans-30" transform="translate(127.246094 0)"/>
       <use xlink:href="#DejaVuSans-30" transform="translate(190.869141 0)"/>
       <use xlink:href="#DejaVuSans-30" transform="translate(254.492188 0)"/>
       <use xlink:href="#DejaVuSans-30" transform="translate(318.115234 0)"/>
      </g>
     </g>
    </g>
    <g id="xtick_10">
     <g id="line2d_17">
      <g>
       <use xlink:href="#m9529dfa01c" x="834.939245" y="313.44625" style="stroke: #000000; stroke-width: 0.8"/>
      </g>
     </g>
     <g id="text_20">
      <!-- 600000 -->
      <g transform="translate(815.851745 328.044687) scale(0.1 -0.1)">
       <defs>
        <path id="DejaVuSans-36" d="M 2113 2584 
Q 1688 2584 1439 2293 
Q 1191 2003 1191 1497 
Q 1191 994 1439 701 
Q 1688 409 2113 409 
Q 2538 409 2786 701 
Q 3034 994 3034 1497 
Q 3034 2003 2786 2293 
Q 2538 2584 2113 2584 
z
M 3366 4563 
L 3366 3988 
Q 3128 4100 2886 4159 
Q 2644 4219 2406 4219 
Q 1781 4219 1451 3797 
Q 1122 3375 1075 2522 
Q 1259 2794 1537 2939 
Q 1816 3084 2150 3084 
Q 2853 3084 3261 2657 
Q 3669 2231 3669 1497 
Q 3669 778 3244 343 
Q 2819 -91 2113 -91 
Q 1303 -91 875 529 
Q 447 1150 447 2328 
Q 447 3434 972 4092 
Q 1497 4750 2381 4750 
Q 2619 4750 2861 4703 
Q 3103 4656 3366 4563 
z
" transform="scale(0.015625)"/>
       </defs>
       <use xlink:href="#DejaVuSans-36"/>
       <use xlink:href="#DejaVuSans-30" transform="translate(63.623047 0)"/>
       <use xlink:href="#DejaVuSans-30" transform="translate(127.246094 0)"/>
       <use xlink:href="#DejaVuSans-30" transform="translate(190.869141 0)"/>
       <use xlink:href="#DejaVuSans-30" transform="translate(254.492188 0)"/>
       <use xlink:href="#DejaVuSans-30" transform="translate(318.115234 0)"/>
      </g>
     </g>
    </g>
    <g id="xtick_11">
     <g id="line2d_18">
      <g>
       <use xlink:href="#m9529dfa01c" x="920.562715" y="313.44625" style="stroke: #000000; stroke-width: 0.8"/>
      </g>
     </g>
     <g id="text_21">
      <!-- 800000 -->
      <g transform="translate(901.475215 328.044687) scale(0.1 -0.1)">
       <defs>
        <path id="DejaVuSans-38" d="M 2034 2216 
Q 1584 2216 1326 1975 
Q 1069 1734 1069 1313 
Q 1069 891 1326 650 
Q 1584 409 2034 409 
Q 2484 409 2743 651 
Q 3003 894 3003 1313 
Q 3003 1734 2745 1975 
Q 2488 2216 2034 2216 
z
M 1403 2484 
Q 997 2584 770 2862 
Q 544 3141 544 3541 
Q 544 4100 942 4425 
Q 1341 4750 2034 4750 
Q 2731 4750 3128 4425 
Q 3525 4100 3525 3541 
Q 3525 3141 3298 2862 
Q 3072 2584 2669 2484 
Q 3125 2378 3379 2068 
Q 3634 1759 3634 1313 
Q 3634 634 3220 271 
Q 2806 -91 2034 -91 
Q 1263 -91 848 271 
Q 434 634 434 1313 
Q 434 1759 690 2068 
Q 947 2378 1403 2484 
z
M 1172 3481 
Q 1172 3119 1398 2916 
Q 1625 2713 2034 2713 
Q 2441 2713 2670 2916 
Q 2900 3119 2900 3481 
Q 2900 3844 2670 4047 
Q 2441 4250 2034 4250 
Q 1625 4250 1398 4047 
Q 1172 3844 1172 3481 
z
" transform="scale(0.015625)"/>
       </defs>
       <use xlink:href="#DejaVuSans-38"/>
       <use xlink:href="#DejaVuSans-30" transform="translate(63.623047 0)"/>
       <use xlink:href="#DejaVuSans-30" transform="translate(127.246094 0)"/>
       <use xlink:href="#DejaVuSans-30" transform="translate(190.869141 0)"/>
       <use xlink:href="#DejaVuSans-30" transform="translate(254.492188 0)"/>
       <use xlink:href="#DejaVuSans-30" transform="translate(318.115234 0)"/>
      </g>
     </g>
    </g>
    <g id="text_22">
     <!-- ЗП (руб) -->
     <g transform="translate(754.182188 341.893125) scale(0.1 -0.1)">
      <use xlink:href="#DejaVuSans-417"/>
      <use xlink:href="#DejaVuSans-41f" transform="translate(64.111328 0)"/>
      <use xlink:href="#DejaVuSans-20" transform="translate(139.306641 0)"/>
      <use xlink:href="#DejaVuSans-28" transform="translate(171.09375 0)"/>
      <use xlink:href="#DejaVuSans-440" transform="translate(210.107422 0)"/>
      <use xlink:href="#DejaVuSans-443" transform="translate(273.583984 0)"/>
      <use xlink:href="#DejaVuSans-431" transform="translate(332.763672 0)"/>
      <use xlink:href="#DejaVuSans-29" transform="translate(394.433594 0)"/>
     </g>
    </g>
   </g>
   <g id="matplotlib.axis_4">
    <g id="ytick_6">
     <g id="line2d_19">
      <g>
       <use xlink:href="#mceea2bdacf" x="558.290625" y="313.44625" style="stroke: #000000; stroke-width: 0.8"/>
      </g>
     </g>
     <g id="text_23">
      <!-- 0 -->
      <g transform="translate(544.928125 317.245469) scale(0.1 -0.1)">
       <use xlink:href="#DejaVuSans-30"/>
      </g>
     </g>
    </g>
    <g id="ytick_7">
     <g id="line2d_20">
      <g>
       <use xlink:href="#mceea2bdacf" x="558.290625" y="263.876478" style="stroke: #000000; stroke-width: 0.8"/>
      </g>
     </g>
     <g id="text_24">
      <!-- 2000 -->
      <g transform="translate(525.840625 267.675697) scale(0.1 -0.1)">
       <use xlink:href="#DejaVuSans-32"/>
       <use xlink:href="#DejaVuSans-30" transform="translate(63.623047 0)"/>
       <use xlink:href="#DejaVuSans-30" transform="translate(127.246094 0)"/>
       <use xlink:href="#DejaVuSans-30" transform="translate(190.869141 0)"/>
      </g>
     </g>
    </g>
    <g id="ytick_8">
     <g id="line2d_21">
      <g>
       <use xlink:href="#mceea2bdacf" x="558.290625" y="214.306707" style="stroke: #000000; stroke-width: 0.8"/>
      </g>
     </g>
     <g id="text_25">
      <!-- 4000 -->
      <g transform="translate(525.840625 218.105926) scale(0.1 -0.1)">
       <use xlink:href="#DejaVuSans-34"/>
       <use xlink:href="#DejaVuSans-30" transform="translate(63.623047 0)"/>
       <use xlink:href="#DejaVuSans-30" transform="translate(127.246094 0)"/>
       <use xlink:href="#DejaVuSans-30" transform="translate(190.869141 0)"/>
      </g>
     </g>
    </g>
    <g id="ytick_9">
     <g id="line2d_22">
      <g>
       <use xlink:href="#mceea2bdacf" x="558.290625" y="164.736935" style="stroke: #000000; stroke-width: 0.8"/>
      </g>
     </g>
     <g id="text_26">
      <!-- 6000 -->
      <g transform="translate(525.840625 168.536154) scale(0.1 -0.1)">
       <use xlink:href="#DejaVuSans-36"/>
       <use xlink:href="#DejaVuSans-30" transform="translate(63.623047 0)"/>
       <use xlink:href="#DejaVuSans-30" transform="translate(127.246094 0)"/>
       <use xlink:href="#DejaVuSans-30" transform="translate(190.869141 0)"/>
      </g>
     </g>
    </g>
    <g id="ytick_10">
     <g id="line2d_23">
      <g>
       <use xlink:href="#mceea2bdacf" x="558.290625" y="115.167164" style="stroke: #000000; stroke-width: 0.8"/>
      </g>
     </g>
     <g id="text_27">
      <!-- 8000 -->
      <g transform="translate(525.840625 118.966383) scale(0.1 -0.1)">
       <use xlink:href="#DejaVuSans-38"/>
       <use xlink:href="#DejaVuSans-30" transform="translate(63.623047 0)"/>
       <use xlink:href="#DejaVuSans-30" transform="translate(127.246094 0)"/>
       <use xlink:href="#DejaVuSans-30" transform="translate(190.869141 0)"/>
      </g>
     </g>
    </g>
    <g id="ytick_11">
     <g id="line2d_24">
      <g>
       <use xlink:href="#mceea2bdacf" x="558.290625" y="65.597392" style="stroke: #000000; stroke-width: 0.8"/>
      </g>
     </g>
     <g id="text_28">
      <!-- 10000 -->
      <g transform="translate(519.478125 69.396611) scale(0.1 -0.1)">
       <use xlink:href="#DejaVuSans-31"/>
       <use xlink:href="#DejaVuSans-30" transform="translate(63.623047 0)"/>
       <use xlink:href="#DejaVuSans-30" transform="translate(127.246094 0)"/>
       <use xlink:href="#DejaVuSans-30" transform="translate(190.869141 0)"/>
       <use xlink:href="#DejaVuSans-30" transform="translate(254.492188 0)"/>
      </g>
     </g>
    </g>
    <g id="text_29">
     <!-- Частота -->
     <g transform="translate(513.398438 189.174219) rotate(-90) scale(0.1 -0.1)">
      <use xlink:href="#DejaVuSans-427"/>
      <use xlink:href="#DejaVuSans-430" transform="translate(68.554688 0)"/>
      <use xlink:href="#DejaVuSans-441" transform="translate(129.833984 0)"/>
      <use xlink:href="#DejaVuSans-442" transform="translate(184.814453 0)"/>
      <use xlink:href="#DejaVuSans-43e" transform="translate(243.066406 0)"/>
      <use xlink:href="#DejaVuSans-442" transform="translate(304.248047 0)"/>
      <use xlink:href="#DejaVuSans-430" transform="translate(362.5 0)"/>
     </g>
    </g>
   </g>
   <g id="line2d_25">
    <path d="M 603.327757 313.44625 
L 603.327757 22.5225 
" clip-path="url(#pc4d02e6716)" style="fill: none; stroke-dasharray: 7.4,3.2; stroke-dashoffset: 0; stroke: #ff0000; stroke-width: 2"/>
   </g>
   <g id="patch_159">
    <path d="M 558.290625 313.44625 
L 558.290625 22.5225 
" style="fill: none; stroke: #000000; stroke-width: 0.8; stroke-linejoin: miter; stroke-linecap: square"/>
   </g>
   <g id="patch_160">
    <path d="M 993.420625 313.44625 
L 993.420625 22.5225 
" style="fill: none; stroke: #000000; stroke-width: 0.8; stroke-linejoin: miter; stroke-linecap: square"/>
   </g>
   <g id="patch_161">
    <path d="M 558.290625 313.44625 
L 993.420625 313.44625 
" style="fill: none; stroke: #000000; stroke-width: 0.8; stroke-linejoin: miter; stroke-linecap: square"/>
   </g>
   <g id="patch_162">
    <path d="M 558.290625 22.5225 
L 993.420625 22.5225 
" style="fill: none; stroke: #000000; stroke-width: 0.8; stroke-linejoin: miter; stroke-linecap: square"/>
   </g>
   <g id="text_30">
    <!-- Гистограмма ЗП (до 1 млн руб.) -->
    <g transform="translate(675.000313 16.5225) scale(0.12 -0.12)">
     <use xlink:href="#DejaVuSans-413"/>
     <use xlink:href="#DejaVuSans-438" transform="translate(60.986328 0)"/>
     <use xlink:href="#DejaVuSans-441" transform="translate(125.976562 0)"/>
     <use xlink:href="#DejaVuSans-442" transform="translate(180.957031 0)"/>
     <use xlink:href="#DejaVuSans-43e" transform="translate(239.208984 0)"/>
     <use xlink:href="#DejaVuSans-433" transform="translate(300.390625 0)"/>
     <use xlink:href="#DejaVuSans-440" transform="translate(352.929688 0)"/>
     <use xlink:href="#DejaVuSans-430" transform="translate(416.40625 0)"/>
     <use xlink:href="#DejaVuSans-43c" transform="translate(477.685547 0)"/>
     <use xlink:href="#DejaVuSans-43c" transform="translate(553.125 0)"/>
     <use xlink:href="#DejaVuSans-430" transform="translate(628.564453 0)"/>
     <use xlink:href="#DejaVuSans-20" transform="translate(689.84375 0)"/>
     <use xlink:href="#DejaVuSans-417" transform="translate(721.630859 0)"/>
     <use xlink:href="#DejaVuSans-41f" transform="translate(785.742188 0)"/>
     <use xlink:href="#DejaVuSans-20" transform="translate(860.9375 0)"/>
     <use xlink:href="#DejaVuSans-28" transform="translate(892.724609 0)"/>
     <use xlink:href="#DejaVuSans-434" transform="translate(931.738281 0)"/>
     <use xlink:href="#DejaVuSans-43e" transform="translate(1000.878906 0)"/>
     <use xlink:href="#DejaVuSans-20" transform="translate(1062.060547 0)"/>
     <use xlink:href="#DejaVuSans-31" transform="translate(1093.847656 0)"/>
     <use xlink:href="#DejaVuSans-20" transform="translate(1157.470703 0)"/>
     <use xlink:href="#DejaVuSans-43c" transform="translate(1189.257812 0)"/>
     <use xlink:href="#DejaVuSans-43b" transform="translate(1264.697266 0)"/>
     <use xlink:href="#DejaVuSans-43d" transform="translate(1328.613281 0)"/>
     <use xlink:href="#DejaVuSans-20" transform="translate(1393.994141 0)"/>
     <use xlink:href="#DejaVuSans-440" transform="translate(1425.78125 0)"/>
     <use xlink:href="#DejaVuSans-443" transform="translate(1489.257812 0)"/>
     <use xlink:href="#DejaVuSans-431" transform="translate(1548.4375 0)"/>
     <use xlink:href="#DejaVuSans-2e" transform="translate(1610.107422 0)"/>
     <use xlink:href="#DejaVuSans-29" transform="translate(1641.894531 0)"/>
    </g>
   </g>
   <g id="legend_2">
    <g id="patch_163">
     <path d="M 869.07375 45.200625 
L 986.420625 45.200625 
Q 988.420625 45.200625 988.420625 43.200625 
L 988.420625 29.5225 
Q 988.420625 27.5225 986.420625 27.5225 
L 869.07375 27.5225 
Q 867.07375 27.5225 867.07375 29.5225 
L 867.07375 43.200625 
Q 867.07375 45.200625 869.07375 45.200625 
z
" style="fill: #ffffff; opacity: 0.8; stroke: #cccccc; stroke-linejoin: miter"/>
    </g>
    <g id="line2d_26">
     <path d="M 871.07375 35.620937 
L 881.07375 35.620937 
L 891.07375 35.620937 
" style="fill: none; stroke-dasharray: 7.4,3.2; stroke-dashoffset: 0; stroke: #ff0000; stroke-width: 2"/>
    </g>
    <g id="text_31">
     <!-- Медиана: 59000 -->
     <g transform="translate(899.07375 39.120937) scale(0.1 -0.1)">
      <defs>
       <path id="DejaVuSans-41c" d="M 628 4666 
L 1569 4666 
L 2759 1491 
L 3956 4666 
L 4897 4666 
L 4897 0 
L 4281 0 
L 4281 4097 
L 3078 897 
L 2444 897 
L 1241 4097 
L 1241 0 
L 628 0 
L 628 4666 
z
" transform="scale(0.015625)"/>
       <path id="DejaVuSans-3a" d="M 750 794 
L 1409 794 
L 1409 0 
L 750 0 
L 750 794 
z
M 750 3309 
L 1409 3309 
L 1409 2516 
L 750 2516 
L 750 3309 
z
" transform="scale(0.015625)"/>
       <path id="DejaVuSans-39" d="M 703 97 
L 703 672 
Q 941 559 1184 500 
Q 1428 441 1663 441 
Q 2288 441 2617 861 
Q 2947 1281 2994 2138 
Q 2813 1869 2534 1725 
Q 2256 1581 1919 1581 
Q 1219 1581 811 2004 
Q 403 2428 403 3163 
Q 403 3881 828 4315 
Q 1253 4750 1959 4750 
Q 2769 4750 3195 4129 
Q 3622 3509 3622 2328 
Q 3622 1225 3098 567 
Q 2575 -91 1691 -91 
Q 1453 -91 1209 -44 
Q 966 3 703 97 
z
M 1959 2075 
Q 2384 2075 2632 2365 
Q 2881 2656 2881 3163 
Q 2881 3666 2632 3958 
Q 2384 4250 1959 4250 
Q 1534 4250 1286 3958 
Q 1038 3666 1038 3163 
Q 1038 2656 1286 2365 
Q 1534 2075 1959 2075 
z
" transform="scale(0.015625)"/>
      </defs>
      <use xlink:href="#DejaVuSans-41c"/>
      <use xlink:href="#DejaVuSans-435" transform="translate(86.279297 0)"/>
      <use xlink:href="#DejaVuSans-434" transform="translate(147.802734 0)"/>
      <use xlink:href="#DejaVuSans-438" transform="translate(216.943359 0)"/>
      <use xlink:href="#DejaVuSans-430" transform="translate(281.933594 0)"/>
      <use xlink:href="#DejaVuSans-43d" transform="translate(343.212891 0)"/>
      <use xlink:href="#DejaVuSans-430" transform="translate(408.59375 0)"/>
      <use xlink:href="#DejaVuSans-3a" transform="translate(469.873047 0)"/>
      <use xlink:href="#DejaVuSans-20" transform="translate(503.564453 0)"/>
      <use xlink:href="#DejaVuSans-35" transform="translate(535.351562 0)"/>
      <use xlink:href="#DejaVuSans-39" transform="translate(598.974609 0)"/>
      <use xlink:href="#DejaVuSans-30" transform="translate(662.597656 0)"/>
      <use xlink:href="#DejaVuSans-30" transform="translate(726.220703 0)"/>
      <use xlink:href="#DejaVuSans-30" transform="translate(789.84375 0)"/>
     </g>
    </g>
   </g>
  </g>
 </g>
 <defs>
  <clipPath id="p0165d73c0e">
   <rect x="59.690625" y="22.5225" width="435.13" height="290.92375"/>
  </clipPath>
  <clipPath id="pc4d02e6716">
   <rect x="558.290625" y="22.5225" width="435.13" height="290.92375"/>
  </clipPath>
 </defs>
</svg>
