<?xml version="1.0" encoding="utf-8" standalone="no"?>
<!DOCTYPE svg PUBLIC "-//W3C//DTD SVG 1.1//EN"
  "http://www.w3.org/Graphics/SVG/1.1/DTD/svg11.dtd">
<svg xmlns:xlink="http://www.w3.org/1999/xlink" width="711.524375pt" height="422.780312pt" viewBox="0 0 711.524375 422.780312" xmlns="http://www.w3.org/2000/svg" version="1.1">
 <metadata>
  <rdf:RDF xmlns:dc="http://purl.org/dc/elements/1.1/" xmlns:cc="http://creativecommons.org/ns#" xmlns:rdf="http://www.w3.org/1999/02/22-rdf-syntax-ns#">
   <cc:Work>
    <dc:type rdf:resource="http://purl.org/dc/dcmitype/StillImage"/>
    <dc:date>2026-01-22T01:35:21.291271</dc:date>
    <dc:format>image/svg+xml</dc:format>
    <dc:creator>
     <cc:Agent>
      <dc:title>Matplotlib v3.10.7, https://matplotlib.org/</dc:title>
     </cc:Agent>
    </dc:creator>
   </cc:Work>
  </rdf:RDF>
 </metadata>
 <defs>
  <style type="text/css">*{stroke-linejoin: round; stroke-linecap: butt}</style>
 </defs>
 <g id="figure_1">
  <g id="patch_1">
   <path d="M 0 422.780312 
L 711.524375 422.780312 
L 711.524375 0 
L 0 0 
z
" style="fill: #ffffff"/>
  </g>
  <g id="axes_1">
   <g id="patch_2">
    <path d="M 42.743125 383.288437 
L 704.324375 383.288437 
L 704.324375 23.728437 
L 42.743125 23.728437 
z
" style="fill: #ffffff"/>
   </g>
   <g id="patch_3">
    <path d="M 72.815 383.288437 
L 196.640368 383.288437 
L 196.640368 174.277622 
L 72.815 174.277622 
z
" clip-path="url(#p52f6a03517)" style="fill: #ff6b6b; stroke: #000000; stroke-linejoin: miter"/>
   </g>
   <g id="patch_4">
    <path d="M 426.601765 383.288437 
L 550.427132 383.288437 
L 550.427132 122.024918 
L 426.601765 122.024918 
z
" clip-path="url(#p52f6a03517)" style="fill: #ff6b6b; stroke: #000000; stroke-linejoin: miter"/>
   </g>
   <g id="patch_5">
    <path d="M 196.640368 383.288437 
L 320.465735 383.288437 
L 320.465735 69.772214 
L 196.640368 69.772214 
z
" clip-path="url(#p52f6a03517)" style="fill: #4ecdc4; stroke: #000000; stroke-linejoin: miter"/>
   </g>
   <g id="patch_6">
    <path d="M 550.427132 383.288437 
L 674.2525 383.288437 
L 674.2525 40.850342 
L 550.427132 40.850342 
z
" clip-path="url(#p52f6a03517)" style="fill: #4ecdc4; stroke: #000000; stroke-linejoin: miter"/>
   </g>
   <g id="matplotlib.axis_1">
    <g id="xtick_1">
     <g id="line2d_1">
      <defs>
       <path id="ma29772bac0" d="M 0 0 
L 0 3.5 
" style="stroke: #000000; stroke-width: 0.8"/>
      </defs>
      <g>
       <use xlink:href="#ma29772bac0" x="196.640368" y="383.288437" style="stroke: #000000; stroke-width: 0.8"/>
      </g>
     </g>
     <g id="text_1">
      <!-- Не готов -->
      <g transform="translate(173.609118 397.886875) scale(0.1 -0.1)">
       <defs>
        <path id="DejaVuSans-41d" d="M 628 4666 
L 1259 4666 
L 1259 2753 
L 3553 2753 
L 3553 4666 
L 4184 4666 
L 4184 0 
L 3553 0 
L 3553 2222 
L 1259 2222 
L 1259 0 
L 628 0 
L 628 4666 
z
" transform="scale(0.015625)"/>
        <path id="DejaVuSans-435" d="M 3597 1894 
L 3597 1613 
L 953 1613 
Q 991 1019 1311 708 
Q 1631 397 2203 397 
Q 2534 397 2845 478 
Q 3156 559 3463 722 
L 3463 178 
Q 3153 47 2828 -22 
Q 2503 -91 2169 -91 
Q 1331 -91 842 396 
Q 353 884 353 1716 
Q 353 2575 817 3079 
Q 1281 3584 2069 3584 
Q 2775 3584 3186 3129 
Q 3597 2675 3597 1894 
z
M 3022 2063 
Q 3016 2534 2758 2815 
Q 2500 3097 2075 3097 
Q 1594 3097 1305 2825 
Q 1016 2553 972 2059 
L 3022 2063 
z
" transform="scale(0.015625)"/>
        <path id="DejaVuSans-20" transform="scale(0.015625)"/>
        <path id="DejaVuSans-433" d="M 581 0 
L 581 3500 
L 3050 3500 
L 3050 3041 
L 1159 3041 
L 1159 0 
L 581 0 
z
" transform="scale(0.015625)"/>
        <path id="DejaVuSans-43e" d="M 1959 3097 
Q 1497 3097 1228 2736 
Q 959 2375 959 1747 
Q 959 1119 1226 758 
Q 1494 397 1959 397 
Q 2419 397 2687 759 
Q 2956 1122 2956 1747 
Q 2956 2369 2687 2733 
Q 2419 3097 1959 3097 
z
M 1959 3584 
Q 2709 3584 3137 3096 
Q 3566 2609 3566 1747 
Q 3566 888 3137 398 
Q 2709 -91 1959 -91 
Q 1206 -91 779 398 
Q 353 888 353 1747 
Q 353 2609 779 3096 
Q 1206 3584 1959 3584 
z
" transform="scale(0.015625)"/>
        <path id="DejaVuSans-442" d="M 188 3500 
L 3541 3500 
L 3541 3041 
L 2147 3041 
L 2147 0 
L 1581 0 
L 1581 3041 
L 188 3041 
L 188 3500 
z
" transform="scale(0.015625)"/>
        <path id="DejaVuSans-432" d="M 1156 1613 
L 1156 459 
L 1975 459 
Q 2369 459 2575 607 
Q 2781 756 2781 1038 
Q 2781 1319 2575 1466 
Q 2369 1613 1975 1613 
L 1156 1613 
z
M 1156 3041 
L 1156 2072 
L 1913 2072 
Q 2238 2072 2444 2201 
Q 2650 2331 2650 2563 
Q 2650 2794 2444 2917 
Q 2238 3041 1913 3041 
L 1156 3041 
z
M 581 3500 
L 1950 3500 
Q 2566 3500 2897 3275 
Q 3228 3050 3228 2634 
Q 3228 2313 3059 2123 
Q 2891 1934 2559 1888 
Q 2956 1813 3175 1575 
Q 3394 1338 3394 981 
Q 3394 513 3033 256 
Q 2672 0 2003 0 
L 581 0 
L 581 3500 
z
" transform="scale(0.015625)"/>
       </defs>
       <use xlink:href="#DejaVuSans-41d"/>
       <use xlink:href="#DejaVuSans-435" transform="translate(75.195312 0)"/>
       <use xlink:href="#DejaVuSans-20" transform="translate(136.71875 0)"/>
       <use xlink:href="#DejaVuSans-433" transform="translate(168.505859 0)"/>
       <use xlink:href="#DejaVuSans-43e" transform="translate(221.044922 0)"/>
       <use xlink:href="#DejaVuSans-442" transform="translate(282.226562 0)"/>
       <use xlink:href="#DejaVuSans-43e" transform="translate(340.478516 0)"/>
       <use xlink:href="#DejaVuSans-432" transform="translate(401.660156 0)"/>
      </g>
     </g>
    </g>
    <g id="xtick_2">
     <g id="line2d_2">
      <g>
       <use xlink:href="#ma29772bac0" x="550.427132" y="383.288437" style="stroke: #000000; stroke-width: 0.8"/>
      </g>
     </g>
     <g id="text_2">
      <!-- Готов -->
      <g transform="translate(535.399789 397.886875) scale(0.1 -0.1)">
       <defs>
        <path id="DejaVuSans-413" d="M 628 0 
L 628 4666 
L 3531 4666 
L 3531 4134 
L 1259 4134 
L 1259 0 
L 628 0 
z
" transform="scale(0.015625)"/>
       </defs>
       <use xlink:href="#DejaVuSans-413"/>
       <use xlink:href="#DejaVuSans-43e" transform="translate(60.986328 0)"/>
       <use xlink:href="#DejaVuSans-442" transform="translate(122.167969 0)"/>
       <use xlink:href="#DejaVuSans-43e" transform="translate(180.419922 0)"/>
       <use xlink:href="#DejaVuSans-432" transform="translate(241.601562 0)"/>
      </g>
     </g>
    </g>
    <g id="text_3">
     <!-- Готовность к переезду -->
     <g transform="translate(300.441562 413.084687) scale(0.12 -0.12)">
      <defs>
       <path id="DejaVuSans-43d" d="M 581 3500 
L 1159 3500 
L 1159 2072 
L 3025 2072 
L 3025 3500 
L 3603 3500 
L 3603 0 
L 3025 0 
L 3025 1613 
L 1159 1613 
L 1159 0 
L 581 0 
L 581 3500 
z
" transform="scale(0.015625)"/>
       <path id="DejaVuSans-441" d="M 3122 3366 
L 3122 2828 
Q 2878 2963 2633 3030 
Q 2388 3097 2138 3097 
Q 1578 3097 1268 2742 
Q 959 2388 959 1747 
Q 959 1106 1268 751 
Q 1578 397 2138 397 
Q 2388 397 2633 464 
Q 2878 531 3122 666 
L 3122 134 
Q 2881 22 2623 -34 
Q 2366 -91 2075 -91 
Q 1284 -91 818 406 
Q 353 903 353 1747 
Q 353 2603 823 3093 
Q 1294 3584 2113 3584 
Q 2378 3584 2631 3529 
Q 2884 3475 3122 3366 
z
" transform="scale(0.015625)"/>
       <path id="DejaVuSans-44c" d="M 2781 1038 
Q 2781 1319 2576 1466 
Q 2372 1613 1978 1613 
L 1159 1613 
L 1159 459 
L 1978 459 
Q 2372 459 2576 607 
Q 2781 756 2781 1038 
z
M 581 3500 
L 1159 3500 
L 1159 2072 
L 2003 2072 
Q 2672 2072 3033 1817 
Q 3394 1563 3394 1038 
Q 3394 513 3033 256 
Q 2672 0 2003 0 
L 581 0 
L 581 3500 
z
" transform="scale(0.015625)"/>
       <path id="DejaVuSans-43a" d="M 581 3500 
L 1153 3500 
L 1153 1856 
L 2775 3500 
L 3481 3500 
L 2144 2147 
L 3653 0 
L 3009 0 
L 1769 1766 
L 1153 1141 
L 1153 0 
L 581 0 
L 581 3500 
z
" transform="scale(0.015625)"/>
       <path id="DejaVuSans-43f" d="M 3603 3500 
L 3603 0 
L 3025 0 
L 3025 3041 
L 1159 3041 
L 1159 0 
L 581 0 
L 581 3500 
L 3603 3500 
z
" transform="scale(0.015625)"/>
       <path id="DejaVuSans-440" d="M 1159 525 
L 1159 -1331 
L 581 -1331 
L 581 3500 
L 1159 3500 
L 1159 2969 
Q 1341 3281 1617 3432 
Q 1894 3584 2278 3584 
Q 2916 3584 3314 3078 
Q 3713 2572 3713 1747 
Q 3713 922 3314 415 
Q 2916 -91 2278 -91 
Q 1894 -91 1617 61 
Q 1341 213 1159 525 
z
M 3116 1747 
Q 3116 2381 2855 2742 
Q 2594 3103 2138 3103 
Q 1681 3103 1420 2742 
Q 1159 2381 1159 1747 
Q 1159 1113 1420 752 
Q 1681 391 2138 391 
Q 2594 391 2855 752 
Q 3116 1113 3116 1747 
z
" transform="scale(0.015625)"/>
       <path id="DejaVuSans-437" d="M 2206 1888 
Q 2594 1813 2809 1584 
Q 3025 1356 3025 1019 
Q 3025 478 2622 193 
Q 2219 -91 1475 -91 
Q 1225 -91 961 -47 
Q 697 -3 416 84 
L 416 619 
Q 638 503 903 445 
Q 1169 388 1459 388 
Q 1931 388 2195 563 
Q 2459 738 2459 1019 
Q 2459 1294 2225 1461 
Q 1991 1628 1563 1628 
L 1100 1628 
L 1100 2103 
L 1584 2103 
Q 1947 2103 2158 2242 
Q 2369 2381 2369 2600 
Q 2369 2800 2151 2944 
Q 1934 3088 1563 3088 
Q 1341 3088 1089 3047 
Q 838 3006 534 2916 
L 534 3438 
Q 841 3513 1106 3550 
Q 1372 3588 1609 3588 
Q 2222 3588 2576 3342 
Q 2931 3097 2931 2656 
Q 2931 2366 2743 2164 
Q 2556 1963 2206 1888 
z
" transform="scale(0.015625)"/>
       <path id="DejaVuSans-434" d="M 1384 459 
L 3053 459 
L 3053 3041 
L 1844 3041 
L 1844 2603 
Q 1844 1316 1475 628 
L 1384 459 
z
M 550 459 
Q 834 584 959 850 
Q 1266 1509 1266 2838 
L 1266 3500 
L 3631 3500 
L 3631 459 
L 4091 459 
L 4091 -884 
L 3631 -884 
L 3631 0 
L 794 0 
L 794 -884 
L 334 -884 
L 334 459 
L 550 459 
z
" transform="scale(0.015625)"/>
       <path id="DejaVuSans-443" d="M 2059 -325 
Q 1816 -950 1584 -1140 
Q 1353 -1331 966 -1331 
L 506 -1331 
L 506 -850 
L 844 -850 
Q 1081 -850 1212 -737 
Q 1344 -625 1503 -206 
L 1606 56 
L 191 3500 
L 800 3500 
L 1894 763 
L 2988 3500 
L 3597 3500 
L 2059 -325 
z
" transform="scale(0.015625)"/>
      </defs>
      <use xlink:href="#DejaVuSans-413"/>
      <use xlink:href="#DejaVuSans-43e" transform="translate(60.986328 0)"/>
      <use xlink:href="#DejaVuSans-442" transform="translate(122.167969 0)"/>
      <use xlink:href="#DejaVuSans-43e" transform="translate(180.419922 0)"/>
      <use xlink:href="#DejaVuSans-432" transform="translate(241.601562 0)"/>
      <use xlink:href="#DejaVuSans-43d" transform="translate(300.537109 0)"/>
      <use xlink:href="#DejaVuSans-43e" transform="translate(365.917969 0)"/>
      <use xlink:href="#DejaVuSans-441" transform="translate(427.099609 0)"/>
      <use xlink:href="#DejaVuSans-442" transform="translate(482.080078 0)"/>
      <use xlink:href="#DejaVuSans-44c" transform="translate(540.332031 0)"/>
      <use xlink:href="#DejaVuSans-20" transform="translate(599.267578 0)"/>
      <use xlink:href="#DejaVuSans-43a" transform="translate(631.054688 0)"/>
      <use xlink:href="#DejaVuSans-20" transform="translate(691.455078 0)"/>
      <use xlink:href="#DejaVuSans-43f" transform="translate(723.242188 0)"/>
      <use xlink:href="#DejaVuSans-435" transform="translate(788.623047 0)"/>
      <use xlink:href="#DejaVuSans-440" transform="translate(850.146484 0)"/>
      <use xlink:href="#DejaVuSans-435" transform="translate(913.623047 0)"/>
      <use xlink:href="#DejaVuSans-435" transform="translate(975.146484 0)"/>
      <use xlink:href="#DejaVuSans-437" transform="translate(1036.669922 0)"/>
      <use xlink:href="#DejaVuSans-434" transform="translate(1089.84375 0)"/>
      <use xlink:href="#DejaVuSans-443" transform="translate(1158.984375 0)"/>
     </g>
    </g>
   </g>
   <g id="matplotlib.axis_2">
    <g id="ytick_1">
     <g id="line2d_3">
      <path d="M 42.743125 383.288437 
L 704.324375 383.288437 
" clip-path="url(#p52f6a03517)" style="fill: none; stroke: #b0b0b0; stroke-opacity: 0.3; stroke-width: 0.8; stroke-linecap: square"/>
     </g>
     <g id="line2d_4">
      <defs>
       <path id="mc0858f592e" d="M 0 0 
L -3.5 0 
" style="stroke: #000000; stroke-width: 0.8"/>
      </defs>
      <g>
       <use xlink:href="#mc0858f592e" x="42.743125" y="383.288437" style="stroke: #000000; stroke-width: 0.8"/>
      </g>
     </g>
     <g id="text_4">
      <!-- 0 -->
      <g transform="translate(29.380625 387.087656) scale(0.1 -0.1)">
       <defs>
        <path id="DejaVuSans-30" d="M 2034 4250 
Q 1547 4250 1301 3770 
Q 1056 3291 1056 2328 
Q 1056 1369 1301 889 
Q 1547 409 2034 409 
Q 2525 409 2770 889 
Q 3016 1369 3016 2328 
Q 3016 3291 2770 3770 
Q 2525 4250 2034 4250 
z
M 2034 4750 
Q 2819 4750 3233 4129 
Q 3647 3509 3647 2328 
Q 3647 1150 3233 529 
Q 2819 -91 2034 -91 
Q 1250 -91 836 529 
Q 422 1150 422 2328 
Q 422 3509 836 4129 
Q 1250 4750 2034 4750 
z
" transform="scale(0.015625)"/>
       </defs>
       <use xlink:href="#DejaVuSans-30"/>
      </g>
     </g>
    </g>
    <g id="ytick_2">
     <g id="line2d_5">
      <path d="M 42.743125 331.035734 
L 704.324375 331.035734 
" clip-path="url(#p52f6a03517)" style="fill: none; stroke: #b0b0b0; stroke-opacity: 0.3; stroke-width: 0.8; stroke-linecap: square"/>
     </g>
     <g id="line2d_6">
      <g>
       <use xlink:href="#mc0858f592e" x="42.743125" y="331.035734" style="stroke: #000000; stroke-width: 0.8"/>
      </g>
     </g>
     <g id="text_5">
      <!-- 10 -->
      <g transform="translate(23.018125 334.834952) scale(0.1 -0.1)">
       <defs>
        <path id="DejaVuSans-31" d="M 794 531 
L 1825 531 
L 1825 4091 
L 703 3866 
L 703 4441 
L 1819 4666 
L 2450 4666 
L 2450 531 
L 3481 531 
L 3481 0 
L 794 0 
L 794 531 
z
" transform="scale(0.015625)"/>
       </defs>
       <use xlink:href="#DejaVuSans-31"/>
       <use xlink:href="#DejaVuSans-30" transform="translate(63.623047 0)"/>
      </g>
     </g>
    </g>
    <g id="ytick_3">
     <g id="line2d_7">
      <path d="M 42.743125 278.78303 
L 704.324375 278.78303 
" clip-path="url(#p52f6a03517)" style="fill: none; stroke: #b0b0b0; stroke-opacity: 0.3; stroke-width: 0.8; stroke-linecap: square"/>
     </g>
     <g id="line2d_8">
      <g>
       <use xlink:href="#mc0858f592e" x="42.743125" y="278.78303" style="stroke: #000000; stroke-width: 0.8"/>
      </g>
     </g>
     <g id="text_6">
      <!-- 20 -->
      <g transform="translate(23.018125 282.582248) scale(0.1 -0.1)">
       <defs>
        <path id="DejaVuSans-32" d="M 1228 531 
L 3431 531 
L 3431 0 
L 469 0 
L 469 531 
Q 828 903 1448 1529 
Q 2069 2156 2228 2338 
Q 2531 2678 2651 2914 
Q 2772 3150 2772 3378 
Q 2772 3750 2511 3984 
Q 2250 4219 1831 4219 
Q 1534 4219 1204 4116 
Q 875 4013 500 3803 
L 500 4441 
Q 881 4594 1212 4672 
Q 1544 4750 1819 4750 
Q 2544 4750 2975 4387 
Q 3406 4025 3406 3419 
Q 3406 3131 3298 2873 
Q 3191 2616 2906 2266 
Q 2828 2175 2409 1742 
Q 1991 1309 1228 531 
z
" transform="scale(0.015625)"/>
       </defs>
       <use xlink:href="#DejaVuSans-32"/>
       <use xlink:href="#DejaVuSans-30" transform="translate(63.623047 0)"/>
      </g>
     </g>
    </g>
    <g id="ytick_4">
     <g id="line2d_9">
      <path d="M 42.743125 226.530326 
L 704.324375 226.530326 
" clip-path="url(#p52f6a03517)" style="fill: none; stroke: #b0b0b0; stroke-opacity: 0.3; stroke-width: 0.8; stroke-linecap: square"/>
     </g>
     <g id="line2d_10">
      <g>
       <use xlink:href="#mc0858f592e" x="42.743125" y="226.530326" style="stroke: #000000; stroke-width: 0.8"/>
      </g>
     </g>
     <g id="text_7">
      <!-- 30 -->
      <g transform="translate(23.018125 230.329544) scale(0.1 -0.1)">
       <defs>
        <path id="DejaVuSans-33" d="M 2597 2516 
Q 3050 2419 3304 2112 
Q 3559 1806 3559 1356 
Q 3559 666 3084 287 
Q 2609 -91 1734 -91 
Q 1441 -91 1130 -33 
Q 819 25 488 141 
L 488 750 
Q 750 597 1062 519 
Q 1375 441 1716 441 
Q 2309 441 2620 675 
Q 2931 909 2931 1356 
Q 2931 1769 2642 2001 
Q 2353 2234 1838 2234 
L 1294 2234 
L 1294 2753 
L 1863 2753 
Q 2328 2753 2575 2939 
Q 2822 3125 2822 3475 
Q 2822 3834 2567 4026 
Q 2313 4219 1838 4219 
Q 1578 4219 1281 4162 
Q 984 4106 628 3988 
L 628 4550 
Q 988 4650 1302 4700 
Q 1616 4750 1894 4750 
Q 2613 4750 3031 4423 
Q 3450 4097 3450 3541 
Q 3450 3153 3228 2886 
Q 3006 2619 2597 2516 
z
" transform="scale(0.015625)"/>
       </defs>
       <use xlink:href="#DejaVuSans-33"/>
       <use xlink:href="#DejaVuSans-30" transform="translate(63.623047 0)"/>
      </g>
     </g>
    </g>
    <g id="ytick_5">
     <g id="line2d_11">
      <path d="M 42.743125 174.277622 
L 704.324375 174.277622 
" clip-path="url(#p52f6a03517)" style="fill: none; stroke: #b0b0b0; stroke-opacity: 0.3; stroke-width: 0.8; stroke-linecap: square"/>
     </g>
     <g id="line2d_12">
      <g>
       <use xlink:href="#mc0858f592e" x="42.743125" y="174.277622" style="stroke: #000000; stroke-width: 0.8"/>
      </g>
     </g>
     <g id="text_8">
      <!-- 40 -->
      <g transform="translate(23.018125 178.076841) scale(0.1 -0.1)">
       <defs>
        <path id="DejaVuSans-34" d="M 2419 4116 
L 825 1625 
L 2419 1625 
L 2419 4116 
z
M 2253 4666 
L 3047 4666 
L 3047 1625 
L 3713 1625 
L 3713 1100 
L 3047 1100 
L 3047 0 
L 2419 0 
L 2419 1100 
L 313 1100 
L 313 1709 
L 2253 4666 
z
" transform="scale(0.015625)"/>
       </defs>
       <use xlink:href="#DejaVuSans-34"/>
       <use xlink:href="#DejaVuSans-30" transform="translate(63.623047 0)"/>
      </g>
     </g>
    </g>
    <g id="ytick_6">
     <g id="line2d_13">
      <path d="M 42.743125 122.024918 
L 704.324375 122.024918 
" clip-path="url(#p52f6a03517)" style="fill: none; stroke: #b0b0b0; stroke-opacity: 0.3; stroke-width: 0.8; stroke-linecap: square"/>
     </g>
     <g id="line2d_14">
      <g>
       <use xlink:href="#mc0858f592e" x="42.743125" y="122.024918" style="stroke: #000000; stroke-width: 0.8"/>
      </g>
     </g>
     <g id="text_9">
      <!-- 50 -->
      <g transform="translate(23.018125 125.824137) scale(0.1 -0.1)">
       <defs>
        <path id="DejaVuSans-35" d="M 691 4666 
L 3169 4666 
L 3169 4134 
L 1269 4134 
L 1269 2991 
Q 1406 3038 1543 3061 
Q 1681 3084 1819 3084 
Q 2600 3084 3056 2656 
Q 3513 2228 3513 1497 
Q 3513 744 3044 326 
Q 2575 -91 1722 -91 
Q 1428 -91 1123 -41 
Q 819 9 494 109 
L 494 744 
Q 775 591 1075 516 
Q 1375 441 1709 441 
Q 2250 441 2565 725 
Q 2881 1009 2881 1497 
Q 2881 1984 2565 2268 
Q 2250 2553 1709 2553 
Q 1456 2553 1204 2497 
Q 953 2441 691 2322 
L 691 4666 
z
" transform="scale(0.015625)"/>
       </defs>
       <use xlink:href="#DejaVuSans-35"/>
       <use xlink:href="#DejaVuSans-30" transform="translate(63.623047 0)"/>
      </g>
     </g>
    </g>
    <g id="ytick_7">
     <g id="line2d_15">
      <path d="M 42.743125 69.772214 
L 704.324375 69.772214 
" clip-path="url(#p52f6a03517)" style="fill: none; stroke: #b0b0b0; stroke-opacity: 0.3; stroke-width: 0.8; stroke-linecap: square"/>
     </g>
     <g id="line2d_16">
      <g>
       <use xlink:href="#mc0858f592e" x="42.743125" y="69.772214" style="stroke: #000000; stroke-width: 0.8"/>
      </g>
     </g>
     <g id="text_10">
      <!-- 60 -->
      <g transform="translate(23.018125 73.571433) scale(0.1 -0.1)">
       <defs>
        <path id="DejaVuSans-36" d="M 2113 2584 
Q 1688 2584 1439 2293 
Q 1191 2003 1191 1497 
Q 1191 994 1439 701 
Q 1688 409 2113 409 
Q 2538 409 2786 701 
Q 3034 994 3034 1497 
Q 3034 2003 2786 2293 
Q 2538 2584 2113 2584 
z
M 3366 4563 
L 3366 3988 
Q 3128 4100 2886 4159 
Q 2644 4219 2406 4219 
Q 1781 4219 1451 3797 
Q 1122 3375 1075 2522 
Q 1259 2794 1537 2939 
Q 1816 3084 2150 3084 
Q 2853 3084 3261 2657 
Q 3669 2231 3669 1497 
Q 3669 778 3244 343 
Q 2819 -91 2113 -91 
Q 1303 -91 875 529 
Q 447 1150 447 2328 
Q 447 3434 972 4092 
Q 1497 4750 2381 4750 
Q 2619 4750 2861 4703 
Q 3103 4656 3366 4563 
z
" transform="scale(0.015625)"/>
       </defs>
       <use xlink:href="#DejaVuSans-36"/>
       <use xlink:href="#DejaVuSans-30" transform="translate(63.623047 0)"/>
      </g>
     </g>
    </g>
    <g id="text_11">
     <!-- Медианная ЗП (тыс. руб.) -->
     <g transform="translate(16.5225 284.399687) rotate(-90) scale(0.12 -0.12)">
      <defs>
       <path id="DejaVuSans-41c" d="M 628 4666 
L 1569 4666 
L 2759 1491 
L 3956 4666 
L 4897 4666 
L 4897 0 
L 4281 0 
L 4281 4097 
L 3078 897 
L 2444 897 
L 1241 4097 
L 1241 0 
L 628 0 
L 628 4666 
z
" transform="scale(0.015625)"/>
       <path id="DejaVuSans-438" d="M 3578 3500 
L 3578 0 
L 3006 0 
L 3006 2809 
L 1319 0 
L 581 0 
L 581 3500 
L 1153 3500 
L 1153 697 
L 2838 3500 
L 3578 3500 
z
" transform="scale(0.015625)"/>
       <path id="DejaVuSans-430" d="M 2194 1759 
Q 1497 1759 1228 1600 
Q 959 1441 959 1056 
Q 959 750 1161 570 
Q 1363 391 1709 391 
Q 2188 391 2477 730 
Q 2766 1069 2766 1631 
L 2766 1759 
L 2194 1759 
z
M 3341 1997 
L 3341 0 
L 2766 0 
L 2766 531 
Q 2569 213 2275 61 
Q 1981 -91 1556 -91 
Q 1019 -91 701 211 
Q 384 513 384 1019 
Q 384 1609 779 1909 
Q 1175 2209 1959 2209 
L 2766 2209 
L 2766 2266 
Q 2766 2663 2505 2880 
Q 2244 3097 1772 3097 
Q 1472 3097 1187 3025 
Q 903 2953 641 2809 
L 641 3341 
Q 956 3463 1253 3523 
Q 1550 3584 1831 3584 
Q 2591 3584 2966 3190 
Q 3341 2797 3341 1997 
z
" transform="scale(0.015625)"/>
       <path id="DejaVuSans-44f" d="M 1181 2491 
Q 1181 2231 1381 2084 
Q 1581 1938 1953 1938 
L 2728 1938 
L 2728 3041 
L 1953 3041 
Q 1581 3041 1381 2897 
Q 1181 2753 1181 2491 
z
M 363 0 
L 1431 1534 
Q 1069 1616 828 1830 
Q 588 2044 588 2491 
Q 588 2997 923 3248 
Q 1259 3500 1938 3500 
L 3306 3500 
L 3306 0 
L 2728 0 
L 2728 1478 
L 2013 1478 
L 981 0 
L 363 0 
z
" transform="scale(0.015625)"/>
       <path id="DejaVuSans-417" d="M 1828 4750 
Q 2597 4750 3084 4423 
Q 3572 4097 3572 3541 
Q 3572 3153 3350 2886 
Q 3128 2619 2719 2516 
Q 3172 2419 3426 2112 
Q 3681 1806 3681 1356 
Q 3681 638 3126 273 
Q 2572 -91 1828 -91 
Q 1447 -91 1003 12 
Q 559 116 422 203 
L 422 853 
Q 900 575 1164 508 
Q 1428 441 1816 441 
Q 2403 441 2728 666 
Q 3053 891 3053 1356 
Q 3053 1769 2764 2001 
Q 2475 2234 1866 2234 
L 1228 2234 
L 1228 2753 
L 1891 2753 
Q 2450 2753 2697 2939 
Q 2944 3125 2944 3475 
Q 2944 3834 2689 4026 
Q 2434 4219 1816 4219 
Q 1397 4219 1253 4181 
Q 1109 4144 469 3903 
L 469 4519 
Q 822 4644 1190 4697 
Q 1559 4750 1828 4750 
z
" transform="scale(0.015625)"/>
       <path id="DejaVuSans-41f" d="M 4184 4666 
L 4184 0 
L 3553 0 
L 3553 4134 
L 1259 4134 
L 1259 0 
L 628 0 
L 628 4666 
L 4184 4666 
z
" transform="scale(0.015625)"/>
       <path id="DejaVuSans-28" d="M 1984 4856 
Q 1566 4138 1362 3434 
Q 1159 2731 1159 2009 
Q 1159 1288 1364 580 
Q 1569 -128 1984 -844 
L 1484 -844 
Q 1016 -109 783 600 
Q 550 1309 550 2009 
Q 550 2706 781 3412 
Q 1013 4119 1484 4856 
L 1984 4856 
z
" transform="scale(0.015625)"/>
       <path id="DejaVuSans-44b" d="M 3907 3500 
L 4482 3500 
L 4482 0 
L 3907 0 
L 3907 3500 
z
M 4195 3584 
L 4195 3584 
z
M 2781 1038 
Q 2781 1319 2576 1466 
Q 2372 1613 1978 1613 
L 1159 1613 
L 1159 459 
L 1978 459 
Q 2372 459 2576 607 
Q 2781 756 2781 1038 
z
M 581 3500 
L 1159 3500 
L 1159 2072 
L 2003 2072 
Q 2672 2072 3033 1817 
Q 3394 1563 3394 1038 
Q 3394 513 3033 256 
Q 2672 0 2003 0 
L 581 0 
L 581 3500 
z
" transform="scale(0.015625)"/>
       <path id="DejaVuSans-2e" d="M 684 794 
L 1344 794 
L 1344 0 
L 684 0 
L 684 794 
z
" transform="scale(0.015625)"/>
       <path id="DejaVuSans-431" d="M 1991 3584 
Q 2741 3584 3169 3096 
Q 3597 2609 3597 1747 
Q 3597 888 3169 398 
Q 2741 -91 1991 -91 
Q 1238 -91 822 384 
Q 406 859 384 1747 
L 366 2463 
Q 350 2834 350 2963 
Q 350 3463 531 3831 
Q 816 4409 1308 4659 
Q 1800 4909 2625 4916 
Q 3006 4919 3175 4972 
L 3334 4516 
Q 3181 4453 3041 4450 
L 2259 4397 
Q 1866 4369 1628 4231 
Q 1006 3866 947 3388 
L 925 3213 
Q 1331 3584 1991 3584 
z
M 1991 3097 
Q 1528 3097 1259 2736 
Q 991 2375 991 1747 
Q 991 1119 1258 758 
Q 1525 397 1991 397 
Q 2450 397 2719 759 
Q 2988 1122 2988 1747 
Q 2988 2369 2719 2733 
Q 2450 3097 1991 3097 
z
" transform="scale(0.015625)"/>
       <path id="DejaVuSans-29" d="M 513 4856 
L 1013 4856 
Q 1481 4119 1714 3412 
Q 1947 2706 1947 2009 
Q 1947 1309 1714 600 
Q 1481 -109 1013 -844 
L 513 -844 
Q 928 -128 1133 580 
Q 1338 1288 1338 2009 
Q 1338 2731 1133 3434 
Q 928 4138 513 4856 
z
" transform="scale(0.015625)"/>
      </defs>
      <use xlink:href="#DejaVuSans-41c"/>
      <use xlink:href="#DejaVuSans-435" transform="translate(86.279297 0)"/>
      <use xlink:href="#DejaVuSans-434" transform="translate(147.802734 0)"/>
      <use xlink:href="#DejaVuSans-438" transform="translate(216.943359 0)"/>
      <use xlink:href="#DejaVuSans-430" transform="translate(281.933594 0)"/>
      <use xlink:href="#DejaVuSans-43d" transform="translate(343.212891 0)"/>
      <use xlink:href="#DejaVuSans-43d" transform="translate(408.59375 0)"/>
      <use xlink:href="#DejaVuSans-430" transform="translate(473.974609 0)"/>
      <use xlink:href="#DejaVuSans-44f" transform="translate(535.253906 0)"/>
      <use xlink:href="#DejaVuSans-20" transform="translate(595.410156 0)"/>
      <use xlink:href="#DejaVuSans-417" transform="translate(627.197266 0)"/>
      <use xlink:href="#DejaVuSans-41f" transform="translate(691.308594 0)"/>
      <use xlink:href="#DejaVuSans-20" transform="translate(766.503906 0)"/>
      <use xlink:href="#DejaVuSans-28" transform="translate(798.291016 0)"/>
      <use xlink:href="#DejaVuSans-442" transform="translate(837.304688 0)"/>
      <use xlink:href="#DejaVuSans-44b" transform="translate(895.556641 0)"/>
      <use xlink:href="#DejaVuSans-441" transform="translate(974.511719 0)"/>
      <use xlink:href="#DejaVuSans-2e" transform="translate(1029.492188 0)"/>
      <use xlink:href="#DejaVuSans-20" transform="translate(1061.279297 0)"/>
      <use xlink:href="#DejaVuSans-440" transform="translate(1093.066406 0)"/>
      <use xlink:href="#DejaVuSans-443" transform="translate(1156.542969 0)"/>
      <use xlink:href="#DejaVuSans-431" transform="translate(1215.722656 0)"/>
      <use xlink:href="#DejaVuSans-2e" transform="translate(1277.392578 0)"/>
      <use xlink:href="#DejaVuSans-29" transform="translate(1309.179688 0)"/>
     </g>
    </g>
   </g>
   <g id="patch_7">
    <path d="M 42.743125 383.288437 
L 42.743125 23.728437 
" style="fill: none; stroke: #000000; stroke-width: 0.8; stroke-linejoin: miter; stroke-linecap: square"/>
   </g>
   <g id="patch_8">
    <path d="M 704.324375 383.288437 
L 704.324375 23.728437 
" style="fill: none; stroke: #000000; stroke-width: 0.8; stroke-linejoin: miter; stroke-linecap: square"/>
   </g>
   <g id="patch_9">
    <path d="M 42.743125 383.288437 
L 704.324375 383.288437 
" style="fill: none; stroke: #000000; stroke-width: 0.8; stroke-linejoin: miter; stroke-linecap: square"/>
   </g>
   <g id="patch_10">
    <path d="M 42.743125 23.728437 
L 704.324375 23.728437 
" style="fill: none; stroke: #000000; stroke-width: 0.8; stroke-linejoin: miter; stroke-linecap: square"/>
   </g>
   <g id="text_12">
    <!-- 40 тыс. -->
    <g transform="translate(117.492684 172.405903) scale(0.09 -0.09)">
     <use xlink:href="#DejaVuSans-34"/>
     <use xlink:href="#DejaVuSans-30" transform="translate(63.623047 0)"/>
     <use xlink:href="#DejaVuSans-20" transform="translate(127.246094 0)"/>
     <use xlink:href="#DejaVuSans-442" transform="translate(159.033203 0)"/>
     <use xlink:href="#DejaVuSans-44b" transform="translate(217.285156 0)"/>
     <use xlink:href="#DejaVuSans-441" transform="translate(296.240234 0)"/>
     <use xlink:href="#DejaVuSans-2e" transform="translate(351.220703 0)"/>
    </g>
   </g>
   <g id="text_13">
    <!-- 50 тыс. -->
    <g transform="translate(471.279449 120.153199) scale(0.09 -0.09)">
     <use xlink:href="#DejaVuSans-35"/>
     <use xlink:href="#DejaVuSans-30" transform="translate(63.623047 0)"/>
     <use xlink:href="#DejaVuSans-20" transform="translate(127.246094 0)"/>
     <use xlink:href="#DejaVuSans-442" transform="translate(159.033203 0)"/>
     <use xlink:href="#DejaVuSans-44b" transform="translate(217.285156 0)"/>
     <use xlink:href="#DejaVuSans-441" transform="translate(296.240234 0)"/>
     <use xlink:href="#DejaVuSans-2e" transform="translate(351.220703 0)"/>
    </g>
   </g>
   <g id="text_14">
    <!-- 60 тыс. -->
    <g transform="translate(241.318051 67.900495) scale(0.09 -0.09)">
     <use xlink:href="#DejaVuSans-36"/>
     <use xlink:href="#DejaVuSans-30" transform="translate(63.623047 0)"/>
     <use xlink:href="#DejaVuSans-20" transform="translate(127.246094 0)"/>
     <use xlink:href="#DejaVuSans-442" transform="translate(159.033203 0)"/>
     <use xlink:href="#DejaVuSans-44b" transform="translate(217.285156 0)"/>
     <use xlink:href="#DejaVuSans-441" transform="translate(296.240234 0)"/>
     <use xlink:href="#DejaVuSans-2e" transform="translate(351.220703 0)"/>
    </g>
   </g>
   <g id="text_15">
    <!-- 66 тыс. -->
    <g transform="translate(595.104816 38.978624) scale(0.09 -0.09)">
     <use xlink:href="#DejaVuSans-36"/>
     <use xlink:href="#DejaVuSans-36" transform="translate(63.623047 0)"/>
     <use xlink:href="#DejaVuSans-20" transform="translate(127.246094 0)"/>
     <use xlink:href="#DejaVuSans-442" transform="translate(159.033203 0)"/>
     <use xlink:href="#DejaVuSans-44b" transform="translate(217.285156 0)"/>
     <use xlink:href="#DejaVuSans-441" transform="translate(296.240234 0)"/>
     <use xlink:href="#DejaVuSans-2e" transform="translate(351.220703 0)"/>
    </g>
   </g>
   <g id="text_16">
    <!-- Медианная ЗП в зависимости от готовности к переезду и командировкам -->
    <g transform="translate(73.370469 17.728437) scale(0.14 -0.14)">
     <defs>
      <path id="DejaVuSans-Bold-41c" d="M 588 4666 
L 2119 4666 
L 3181 2169 
L 4250 4666 
L 5778 4666 
L 5778 0 
L 4641 0 
L 4641 3413 
L 3566 897 
L 2803 897 
L 1728 3413 
L 1728 0 
L 588 0 
L 588 4666 
z
" transform="scale(0.015625)"/>
      <path id="DejaVuSans-Bold-435" d="M 4031 1759 
L 4031 1441 
L 1416 1441 
Q 1456 1047 1700 850 
Q 1944 653 2381 653 
Q 2734 653 3104 758 
Q 3475 863 3866 1075 
L 3866 213 
Q 3469 63 3072 -14 
Q 2675 -91 2278 -91 
Q 1328 -91 801 392 
Q 275 875 275 1747 
Q 275 2603 792 3093 
Q 1309 3584 2216 3584 
Q 3041 3584 3536 3087 
Q 4031 2591 4031 1759 
z
M 2881 2131 
Q 2881 2450 2695 2645 
Q 2509 2841 2209 2841 
Q 1884 2841 1681 2658 
Q 1478 2475 1428 2131 
L 2881 2131 
z
" transform="scale(0.015625)"/>
      <path id="DejaVuSans-Bold-434" d="M 547 800 
Q 903 919 1053 1314 
Q 1203 1709 1203 2838 
L 1203 3500 
L 4228 3500 
L 4228 800 
L 4809 800 
L 4809 -884 
L 4009 -884 
L 4009 0 
L 1159 0 
L 1159 -884 
L 359 -884 
L 359 800 
L 547 800 
z
M 3109 2700 
L 2322 2700 
L 2322 2603 
Q 2322 1456 2063 800 
L 3109 800 
L 3109 2700 
z
" transform="scale(0.015625)"/>
      <path id="DejaVuSans-Bold-438" d="M 3947 3500 
L 3947 0 
L 2828 0 
L 2828 1863 
L 1700 0 
L 538 0 
L 538 3500 
L 1656 3500 
L 1656 1638 
L 2784 3500 
L 3947 3500 
z
" transform="scale(0.015625)"/>
      <path id="DejaVuSans-Bold-430" d="M 2106 1575 
Q 1756 1575 1579 1456 
Q 1403 1338 1403 1106 
Q 1403 894 1545 773 
Q 1688 653 1941 653 
Q 2256 653 2472 879 
Q 2688 1106 2688 1447 
L 2688 1575 
L 2106 1575 
z
M 3816 1997 
L 3816 0 
L 2688 0 
L 2688 519 
Q 2463 200 2181 54 
Q 1900 -91 1497 -91 
Q 953 -91 614 226 
Q 275 544 275 1050 
Q 275 1666 698 1953 
Q 1122 2241 2028 2241 
L 2688 2241 
L 2688 2328 
Q 2688 2594 2478 2717 
Q 2269 2841 1825 2841 
Q 1466 2841 1156 2769 
Q 847 2697 581 2553 
L 581 3406 
Q 941 3494 1303 3539 
Q 1666 3584 2028 3584 
Q 2975 3584 3395 3211 
Q 3816 2838 3816 1997 
z
" transform="scale(0.015625)"/>
      <path id="DejaVuSans-Bold-43d" d="M 538 3500 
L 1656 3500 
L 1656 2169 
L 2766 2169 
L 2766 3500 
L 3884 3500 
L 3884 0 
L 2766 0 
L 2766 1478 
L 1656 1478 
L 1656 0 
L 538 0 
L 538 3500 
z
" transform="scale(0.015625)"/>
      <path id="DejaVuSans-Bold-44f" d="M 1528 2394 
Q 1528 2169 1651 2069 
Q 1775 1969 2059 1969 
L 2463 1969 
L 2463 2816 
L 2059 2816 
Q 1775 2816 1651 2719 
Q 1528 2622 1528 2394 
z
M 197 0 
L 1113 1497 
Q 847 1650 650 1917 
Q 453 2184 453 2516 
Q 453 3013 789 3256 
Q 1125 3500 1878 3500 
L 3581 3500 
L 3581 0 
L 2463 0 
L 2463 1278 
L 2069 1278 
L 1288 0 
L 197 0 
z
" transform="scale(0.015625)"/>
      <path id="DejaVuSans-Bold-20" transform="scale(0.015625)"/>
      <path id="DejaVuSans-Bold-417" d="M 3163 2516 
Q 3634 2394 3879 2092 
Q 4125 1791 4125 1325 
Q 4125 631 3594 270 
Q 3063 -91 1950 -91 
Q 1491 -91 1125 -31 
Q 759 28 422 141 
L 422 1069 
Q 759 900 1092 814 
Q 1425 728 1903 728 
Q 2413 728 2667 893 
Q 2922 1059 2922 1369 
Q 2922 1688 2661 1852 
Q 2400 2016 1797 2016 
L 1222 2016 
L 1222 2791 
L 1822 2791 
Q 2369 2791 2591 2933 
Q 2813 3075 2813 3366 
Q 2813 3634 2597 3781 
Q 2381 3928 1956 3928 
Q 1513 3928 1128 3851 
Q 744 3775 528 3669 
L 528 4550 
Q 738 4622 1198 4686 
Q 1659 4750 1953 4750 
Q 2975 4750 3495 4451 
Q 4016 4153 4016 3553 
Q 4016 3144 3800 2883 
Q 3584 2622 3163 2516 
z
" transform="scale(0.015625)"/>
      <path id="DejaVuSans-Bold-41f" d="M 4769 4666 
L 4769 0 
L 3566 0 
L 3566 3756 
L 1791 3756 
L 1791 0 
L 588 0 
L 588 4666 
L 4769 4666 
z
" transform="scale(0.015625)"/>
      <path id="DejaVuSans-Bold-432" d="M 2184 2181 
Q 2378 2181 2478 2261 
Q 2578 2341 2578 2497 
Q 2578 2653 2478 2731 
Q 2378 2809 2184 2809 
L 1656 2809 
L 1656 2181 
L 2184 2181 
z
M 2222 700 
Q 2469 700 2594 798 
Q 2719 897 2719 1094 
Q 2719 1288 2594 1384 
Q 2469 1481 2222 1481 
L 1656 1481 
L 1656 700 
L 2222 700 
z
M 538 3500 
L 2141 3500 
Q 2919 3500 3267 3279 
Q 3616 3059 3616 2575 
Q 3616 2319 3487 2139 
Q 3359 1959 3119 1872 
Q 3428 1788 3598 1561 
Q 3769 1334 3769 1003 
Q 3769 497 3403 248 
Q 3038 0 2294 0 
L 538 0 
L 538 3500 
z
" transform="scale(0.015625)"/>
      <path id="DejaVuSans-Bold-437" d="M 900 2181 
L 1413 2181 
Q 1872 2181 2039 2281 
Q 2206 2381 2206 2519 
Q 2206 2841 1469 2841 
Q 853 2841 472 2625 
L 472 3434 
Q 1041 3584 1713 3584 
Q 2500 3584 2862 3361 
Q 3225 3138 3225 2666 
Q 3225 2047 2541 1888 
Q 3313 1697 3313 994 
Q 3313 453 2888 181 
Q 2463 -91 1553 -91 
Q 875 -91 313 84 
L 313 947 
Q 1013 653 1428 653 
Q 1884 653 2089 776 
Q 2294 900 2294 1056 
Q 2294 1491 1394 1491 
L 900 1491 
L 900 2181 
z
" transform="scale(0.015625)"/>
      <path id="DejaVuSans-Bold-441" d="M 3366 3391 
L 3366 2478 
Q 3138 2634 2908 2709 
Q 2678 2784 2431 2784 
Q 1963 2784 1702 2511 
Q 1441 2238 1441 1747 
Q 1441 1256 1702 982 
Q 1963 709 2431 709 
Q 2694 709 2930 787 
Q 3166 866 3366 1019 
L 3366 103 
Q 3103 6 2833 -42 
Q 2563 -91 2291 -91 
Q 1344 -91 809 395 
Q 275 881 275 1747 
Q 275 2613 809 3098 
Q 1344 3584 2291 3584 
Q 2566 3584 2833 3536 
Q 3100 3488 3366 3391 
z
" transform="scale(0.015625)"/>
      <path id="DejaVuSans-Bold-43c" d="M 538 3500 
L 1825 3500 
L 2613 1750 
L 3400 3500 
L 4691 3500 
L 4691 0 
L 3575 0 
L 3575 1984 
L 2984 672 
L 2250 672 
L 1656 1984 
L 1656 0 
L 538 0 
L 538 3500 
z
" transform="scale(0.015625)"/>
      <path id="DejaVuSans-Bold-43e" d="M 2203 2784 
Q 1831 2784 1636 2517 
Q 1441 2250 1441 1747 
Q 1441 1244 1636 976 
Q 1831 709 2203 709 
Q 2569 709 2762 976 
Q 2956 1244 2956 1747 
Q 2956 2250 2762 2517 
Q 2569 2784 2203 2784 
z
M 2203 3584 
Q 3106 3584 3614 3096 
Q 4122 2609 4122 1747 
Q 4122 884 3614 396 
Q 3106 -91 2203 -91 
Q 1297 -91 786 396 
Q 275 884 275 1747 
Q 275 2609 786 3096 
Q 1297 3584 2203 3584 
z
" transform="scale(0.015625)"/>
      <path id="DejaVuSans-Bold-442" d="M 25 3500 
L 3681 3500 
L 3681 2809 
L 2413 2809 
L 2413 0 
L 1297 0 
L 1297 2809 
L 25 2809 
L 25 3500 
z
" transform="scale(0.015625)"/>
      <path id="DejaVuSans-Bold-433" d="M 538 0 
L 538 3500 
L 3191 3500 
L 3191 2809 
L 1656 2809 
L 1656 0 
L 538 0 
z
" transform="scale(0.015625)"/>
      <path id="DejaVuSans-Bold-43a" d="M 538 3500 
L 1656 3500 
L 1656 2316 
L 2903 3500 
L 4128 3500 
L 2634 2078 
L 4250 0 
L 3094 0 
L 1972 1447 
L 1656 1147 
L 1656 0 
L 538 0 
L 538 3500 
z
" transform="scale(0.015625)"/>
      <path id="DejaVuSans-Bold-43f" d="M 3884 3500 
L 3884 0 
L 2766 0 
L 2766 2700 
L 1656 2700 
L 1656 0 
L 538 0 
L 538 3500 
L 3884 3500 
z
" transform="scale(0.015625)"/>
      <path id="DejaVuSans-Bold-440" d="M 1656 506 
L 1656 -1331 
L 538 -1331 
L 538 3500 
L 1656 3500 
L 1656 2988 
Q 1888 3294 2169 3439 
Q 2450 3584 2816 3584 
Q 3463 3584 3878 3070 
Q 4294 2556 4294 1747 
Q 4294 938 3878 423 
Q 3463 -91 2816 -91 
Q 2450 -91 2169 54 
Q 1888 200 1656 506 
z
M 2400 2772 
Q 2041 2772 1848 2508 
Q 1656 2244 1656 1747 
Q 1656 1250 1848 986 
Q 2041 722 2400 722 
Q 2759 722 2948 984 
Q 3138 1247 3138 1747 
Q 3138 2247 2948 2509 
Q 2759 2772 2400 2772 
z
" transform="scale(0.015625)"/>
      <path id="DejaVuSans-Bold-443" d="M 78 3500 
L 1197 3500 
L 2138 1125 
L 2938 3500 
L 4056 3500 
L 2584 -331 
Q 2363 -916 2067 -1148 
Q 1772 -1381 1288 -1381 
L 641 -1381 
L 641 -647 
L 991 -647 
Q 1275 -647 1404 -556 
Q 1534 -466 1606 -231 
L 1638 -134 
L 78 3500 
z
" transform="scale(0.015625)"/>
     </defs>
     <use xlink:href="#DejaVuSans-Bold-41c"/>
     <use xlink:href="#DejaVuSans-Bold-435" transform="translate(99.511719 0)"/>
     <use xlink:href="#DejaVuSans-Bold-434" transform="translate(167.333984 0)"/>
     <use xlink:href="#DejaVuSans-Bold-438" transform="translate(248.095703 0)"/>
     <use xlink:href="#DejaVuSans-Bold-430" transform="translate(318.164062 0)"/>
     <use xlink:href="#DejaVuSans-Bold-43d" transform="translate(385.644531 0)"/>
     <use xlink:href="#DejaVuSans-Bold-43d" transform="translate(454.736328 0)"/>
     <use xlink:href="#DejaVuSans-Bold-430" transform="translate(523.828125 0)"/>
     <use xlink:href="#DejaVuSans-Bold-44f" transform="translate(591.308594 0)"/>
     <use xlink:href="#DejaVuSans-Bold-20" transform="translate(655.517578 0)"/>
     <use xlink:href="#DejaVuSans-Bold-417" transform="translate(690.332031 0)"/>
     <use xlink:href="#DejaVuSans-Bold-41f" transform="translate(761.376953 0)"/>
     <use xlink:href="#DejaVuSans-Bold-20" transform="translate(845.068359 0)"/>
     <use xlink:href="#DejaVuSans-Bold-432" transform="translate(879.882812 0)"/>
     <use xlink:href="#DejaVuSans-Bold-20" transform="translate(943.164062 0)"/>
     <use xlink:href="#DejaVuSans-Bold-437" transform="translate(977.978516 0)"/>
     <use xlink:href="#DejaVuSans-Bold-430" transform="translate(1036.083984 0)"/>
     <use xlink:href="#DejaVuSans-Bold-432" transform="translate(1103.564453 0)"/>
     <use xlink:href="#DejaVuSans-Bold-438" transform="translate(1166.845703 0)"/>
     <use xlink:href="#DejaVuSans-Bold-441" transform="translate(1236.914062 0)"/>
     <use xlink:href="#DejaVuSans-Bold-438" transform="translate(1296.191406 0)"/>
     <use xlink:href="#DejaVuSans-Bold-43c" transform="translate(1366.259766 0)"/>
     <use xlink:href="#DejaVuSans-Bold-43e" transform="translate(1447.998047 0)"/>
     <use xlink:href="#DejaVuSans-Bold-441" transform="translate(1516.699219 0)"/>
     <use xlink:href="#DejaVuSans-Bold-442" transform="translate(1575.976562 0)"/>
     <use xlink:href="#DejaVuSans-Bold-438" transform="translate(1633.935547 0)"/>
     <use xlink:href="#DejaVuSans-Bold-20" transform="translate(1704.003906 0)"/>
     <use xlink:href="#DejaVuSans-Bold-43e" transform="translate(1738.818359 0)"/>
     <use xlink:href="#DejaVuSans-Bold-442" transform="translate(1807.519531 0)"/>
     <use xlink:href="#DejaVuSans-Bold-20" transform="translate(1865.478516 0)"/>
     <use xlink:href="#DejaVuSans-Bold-433" transform="translate(1900.292969 0)"/>
     <use xlink:href="#DejaVuSans-Bold-43e" transform="translate(1952.539062 0)"/>
     <use xlink:href="#DejaVuSans-Bold-442" transform="translate(2021.240234 0)"/>
     <use xlink:href="#DejaVuSans-Bold-43e" transform="translate(2079.199219 0)"/>
     <use xlink:href="#DejaVuSans-Bold-432" transform="translate(2147.900391 0)"/>
     <use xlink:href="#DejaVuSans-Bold-43d" transform="translate(2211.181641 0)"/>
     <use xlink:href="#DejaVuSans-Bold-43e" transform="translate(2280.273438 0)"/>
     <use xlink:href="#DejaVuSans-Bold-441" transform="translate(2348.974609 0)"/>
     <use xlink:href="#DejaVuSans-Bold-442" transform="translate(2408.251953 0)"/>
     <use xlink:href="#DejaVuSans-Bold-438" transform="translate(2466.210938 0)"/>
     <use xlink:href="#DejaVuSans-Bold-20" transform="translate(2536.279297 0)"/>
     <use xlink:href="#DejaVuSans-Bold-43a" transform="translate(2571.09375 0)"/>
     <use xlink:href="#DejaVuSans-Bold-20" transform="translate(2638.964844 0)"/>
     <use xlink:href="#DejaVuSans-Bold-43f" transform="translate(2673.779297 0)"/>
     <use xlink:href="#DejaVuSans-Bold-435" transform="translate(2742.871094 0)"/>
     <use xlink:href="#DejaVuSans-Bold-440" transform="translate(2810.693359 0)"/>
     <use xlink:href="#DejaVuSans-Bold-435" transform="translate(2882.275391 0)"/>
     <use xlink:href="#DejaVuSans-Bold-435" transform="translate(2950.097656 0)"/>
     <use xlink:href="#DejaVuSans-Bold-437" transform="translate(3017.919922 0)"/>
     <use xlink:href="#DejaVuSans-Bold-434" transform="translate(3076.025391 0)"/>
     <use xlink:href="#DejaVuSans-Bold-443" transform="translate(3156.787109 0)"/>
     <use xlink:href="#DejaVuSans-Bold-20" transform="translate(3221.972656 0)"/>
     <use xlink:href="#DejaVuSans-Bold-438" transform="translate(3256.787109 0)"/>
     <use xlink:href="#DejaVuSans-Bold-20" transform="translate(3326.855469 0)"/>
     <use xlink:href="#DejaVuSans-Bold-43a" transform="translate(3361.669922 0)"/>
     <use xlink:href="#DejaVuSans-Bold-43e" transform="translate(3429.541016 0)"/>
     <use xlink:href="#DejaVuSans-Bold-43c" transform="translate(3498.242188 0)"/>
     <use xlink:href="#DejaVuSans-Bold-430" transform="translate(3579.980469 0)"/>
     <use xlink:href="#DejaVuSans-Bold-43d" transform="translate(3647.460938 0)"/>
     <use xlink:href="#DejaVuSans-Bold-434" transform="translate(3716.552734 0)"/>
     <use xlink:href="#DejaVuSans-Bold-438" transform="translate(3797.314453 0)"/>
     <use xlink:href="#DejaVuSans-Bold-440" transform="translate(3867.382812 0)"/>
     <use xlink:href="#DejaVuSans-Bold-43e" transform="translate(3938.964844 0)"/>
     <use xlink:href="#DejaVuSans-Bold-432" transform="translate(4007.666016 0)"/>
     <use xlink:href="#DejaVuSans-Bold-43a" transform="translate(4070.947266 0)"/>
     <use xlink:href="#DejaVuSans-Bold-430" transform="translate(4138.818359 0)"/>
     <use xlink:href="#DejaVuSans-Bold-43c" transform="translate(4206.298828 0)"/>
    </g>
   </g>
   <g id="legend_1">
    <g id="patch_11">
     <path d="M 477.49 378.288437 
L 697.324375 378.288437 
Q 699.324375 378.288437 699.324375 376.288437 
L 699.324375 333.254062 
Q 699.324375 331.254062 697.324375 331.254062 
L 477.49 331.254062 
Q 475.49 331.254062 475.49 333.254062 
L 475.49 376.288437 
Q 475.49 378.288437 477.49 378.288437 
z
" style="fill: #ffffff; opacity: 0.8; stroke: #cccccc; stroke-linejoin: miter"/>
    </g>
    <g id="text_17">
     <!-- Готовность к командировкам -->
     <g transform="translate(509.317344 342.8525) scale(0.1 -0.1)">
      <defs>
       <path id="DejaVuSans-43c" d="M 581 3500 
L 1422 3500 
L 2416 1156 
L 3413 3500 
L 4247 3500 
L 4247 0 
L 3669 0 
L 3669 2950 
L 2703 672 
L 2128 672 
L 1159 2950 
L 1159 0 
L 581 0 
L 581 3500 
z
" transform="scale(0.015625)"/>
      </defs>
      <use xlink:href="#DejaVuSans-413"/>
      <use xlink:href="#DejaVuSans-43e" transform="translate(60.986328 0)"/>
      <use xlink:href="#DejaVuSans-442" transform="translate(122.167969 0)"/>
      <use xlink:href="#DejaVuSans-43e" transform="translate(180.419922 0)"/>
      <use xlink:href="#DejaVuSans-432" transform="translate(241.601562 0)"/>
      <use xlink:href="#DejaVuSans-43d" transform="translate(300.537109 0)"/>
      <use xlink:href="#DejaVuSans-43e" transform="translate(365.917969 0)"/>
      <use xlink:href="#DejaVuSans-441" transform="translate(427.099609 0)"/>
      <use xlink:href="#DejaVuSans-442" transform="translate(482.080078 0)"/>
      <use xlink:href="#DejaVuSans-44c" transform="translate(540.332031 0)"/>
      <use xlink:href="#DejaVuSans-20" transform="translate(599.267578 0)"/>
      <use xlink:href="#DejaVuSans-43a" transform="translate(631.054688 0)"/>
      <use xlink:href="#DejaVuSans-20" transform="translate(691.455078 0)"/>
      <use xlink:href="#DejaVuSans-43a" transform="translate(723.242188 0)"/>
      <use xlink:href="#DejaVuSans-43e" transform="translate(783.642578 0)"/>
      <use xlink:href="#DejaVuSans-43c" transform="translate(844.824219 0)"/>
      <use xlink:href="#DejaVuSans-430" transform="translate(920.263672 0)"/>
      <use xlink:href="#DejaVuSans-43d" transform="translate(981.542969 0)"/>
      <use xlink:href="#DejaVuSans-434" transform="translate(1046.923828 0)"/>
      <use xlink:href="#DejaVuSans-438" transform="translate(1116.064453 0)"/>
      <use xlink:href="#DejaVuSans-440" transform="translate(1181.054688 0)"/>
      <use xlink:href="#DejaVuSans-43e" transform="translate(1244.53125 0)"/>
      <use xlink:href="#DejaVuSans-432" transform="translate(1305.712891 0)"/>
      <use xlink:href="#DejaVuSans-43a" transform="translate(1364.648438 0)"/>
      <use xlink:href="#DejaVuSans-430" transform="translate(1425.048828 0)"/>
      <use xlink:href="#DejaVuSans-43c" transform="translate(1486.328125 0)"/>
     </g>
    </g>
    <g id="patch_12">
     <path d="M 479.49 357.530625 
L 499.49 357.530625 
L 499.49 350.530625 
L 479.49 350.530625 
z
" style="fill: #ff6b6b; stroke: #000000; stroke-linejoin: miter"/>
    </g>
    <g id="text_18">
     <!-- Готовность к командировкам: False -->
     <g transform="translate(507.49 357.530625) scale(0.1 -0.1)">
      <defs>
       <path id="DejaVuSans-3a" d="M 750 794 
L 1409 794 
L 1409 0 
L 750 0 
L 750 794 
z
M 750 3309 
L 1409 3309 
L 1409 2516 
L 750 2516 
L 750 3309 
z
" transform="scale(0.015625)"/>
       <path id="DejaVuSans-46" d="M 628 4666 
L 3309 4666 
L 3309 4134 
L 1259 4134 
L 1259 2759 
L 3109 2759 
L 3109 2228 
L 1259 2228 
L 1259 0 
L 628 0 
L 628 4666 
z
" transform="scale(0.015625)"/>
       <path id="DejaVuSans-61" d="M 2194 1759 
Q 1497 1759 1228 1600 
Q 959 1441 959 1056 
Q 959 750 1161 570 
Q 1363 391 1709 391 
Q 2188 391 2477 730 
Q 2766 1069 2766 1631 
L 2766 1759 
L 2194 1759 
z
M 3341 1997 
L 3341 0 
L 2766 0 
L 2766 531 
Q 2569 213 2275 61 
Q 1981 -91 1556 -91 
Q 1019 -91 701 211 
Q 384 513 384 1019 
Q 384 1609 779 1909 
Q 1175 2209 1959 2209 
L 2766 2209 
L 2766 2266 
Q 2766 2663 2505 2880 
Q 2244 3097 1772 3097 
Q 1472 3097 1187 3025 
Q 903 2953 641 2809 
L 641 3341 
Q 956 3463 1253 3523 
Q 1550 3584 1831 3584 
Q 2591 3584 2966 3190 
Q 3341 2797 3341 1997 
z
" transform="scale(0.015625)"/>
       <path id="DejaVuSans-6c" d="M 603 4863 
L 1178 4863 
L 1178 0 
L 603 0 
L 603 4863 
z
" transform="scale(0.015625)"/>
       <path id="DejaVuSans-73" d="M 2834 3397 
L 2834 2853 
Q 2591 2978 2328 3040 
Q 2066 3103 1784 3103 
Q 1356 3103 1142 2972 
Q 928 2841 928 2578 
Q 928 2378 1081 2264 
Q 1234 2150 1697 2047 
L 1894 2003 
Q 2506 1872 2764 1633 
Q 3022 1394 3022 966 
Q 3022 478 2636 193 
Q 2250 -91 1575 -91 
Q 1294 -91 989 -36 
Q 684 19 347 128 
L 347 722 
Q 666 556 975 473 
Q 1284 391 1588 391 
Q 1994 391 2212 530 
Q 2431 669 2431 922 
Q 2431 1156 2273 1281 
Q 2116 1406 1581 1522 
L 1381 1569 
Q 847 1681 609 1914 
Q 372 2147 372 2553 
Q 372 3047 722 3315 
Q 1072 3584 1716 3584 
Q 2034 3584 2315 3537 
Q 2597 3491 2834 3397 
z
" transform="scale(0.015625)"/>
       <path id="DejaVuSans-65" d="M 3597 1894 
L 3597 1613 
L 953 1613 
Q 991 1019 1311 708 
Q 1631 397 2203 397 
Q 2534 397 2845 478 
Q 3156 559 3463 722 
L 3463 178 
Q 3153 47 2828 -22 
Q 2503 -91 2169 -91 
Q 1331 -91 842 396 
Q 353 884 353 1716 
Q 353 2575 817 3079 
Q 1281 3584 2069 3584 
Q 2775 3584 3186 3129 
Q 3597 2675 3597 1894 
z
M 3022 2063 
Q 3016 2534 2758 2815 
Q 2500 3097 2075 3097 
Q 1594 3097 1305 2825 
Q 1016 2553 972 2059 
L 3022 2063 
z
" transform="scale(0.015625)"/>
      </defs>
      <use xlink:href="#DejaVuSans-413"/>
      <use xlink:href="#DejaVuSans-43e" transform="translate(60.986328 0)"/>
      <use xlink:href="#DejaVuSans-442" transform="translate(122.167969 0)"/>
      <use xlink:href="#DejaVuSans-43e" transform="translate(180.419922 0)"/>
      <use xlink:href="#DejaVuSans-432" transform="translate(241.601562 0)"/>
      <use xlink:href="#DejaVuSans-43d" transform="translate(300.537109 0)"/>
      <use xlink:href="#DejaVuSans-43e" transform="translate(365.917969 0)"/>
      <use xlink:href="#DejaVuSans-441" transform="translate(427.099609 0)"/>
      <use xlink:href="#DejaVuSans-442" transform="translate(482.080078 0)"/>
      <use xlink:href="#DejaVuSans-44c" transform="translate(540.332031 0)"/>
      <use xlink:href="#DejaVuSans-20" transform="translate(599.267578 0)"/>
      <use xlink:href="#DejaVuSans-43a" transform="translate(631.054688 0)"/>
      <use xlink:href="#DejaVuSans-20" transform="translate(691.455078 0)"/>
      <use xlink:href="#DejaVuSans-43a" transform="translate(723.242188 0)"/>
      <use xlink:href="#DejaVuSans-43e" transform="translate(783.642578 0)"/>
      <use xlink:href="#DejaVuSans-43c" transform="translate(844.824219 0)"/>
      <use xlink:href="#DejaVuSans-430" transform="translate(920.263672 0)"/>
      <use xlink:href="#DejaVuSans-43d" transform="translate(981.542969 0)"/>
      <use xlink:href="#DejaVuSans-434" transform="translate(1046.923828 0)"/>
      <use xlink:href="#DejaVuSans-438" transform="translate(1116.064453 0)"/>
      <use xlink:href="#DejaVuSans-440" transform="translate(1181.054688 0)"/>
      <use xlink:href="#DejaVuSans-43e" transform="translate(1244.53125 0)"/>
      <use xlink:href="#DejaVuSans-432" transform="translate(1305.712891 0)"/>
      <use xlink:href="#DejaVuSans-43a" transform="translate(1364.648438 0)"/>
      <use xlink:href="#DejaVuSans-430" transform="translate(1425.048828 0)"/>
      <use xlink:href="#DejaVuSans-43c" transform="translate(1486.328125 0)"/>
      <use xlink:href="#DejaVuSans-3a" transform="translate(1561.767578 0)"/>
      <use xlink:href="#DejaVuSans-20" transform="translate(1595.458984 0)"/>
      <use xlink:href="#DejaVuSans-46" transform="translate(1627.246094 0)"/>
      <use xlink:href="#DejaVuSans-61" transform="translate(1675.640625 0)"/>
      <use xlink:href="#DejaVuSans-6c" transform="translate(1736.919922 0)"/>
      <use xlink:href="#DejaVuSans-73" transform="translate(1764.703125 0)"/>
      <use xlink:href="#DejaVuSans-65" transform="translate(1816.802734 0)"/>
     </g>
    </g>
    <g id="patch_13">
     <path d="M 479.49 372.20875 
L 499.49 372.20875 
L 499.49 365.20875 
L 479.49 365.20875 
z
" style="fill: #4ecdc4; stroke: #000000; stroke-linejoin: miter"/>
    </g>
    <g id="text_19">
     <!-- Готовность к командировкам: True -->
     <g transform="translate(507.49 372.20875) scale(0.1 -0.1)">
      <defs>
       <path id="DejaVuSans-54" d="M -19 4666 
L 3928 4666 
L 3928 4134 
L 2272 4134 
L 2272 0 
L 1638 0 
L 1638 4134 
L -19 4134 
L -19 4666 
z
" transform="scale(0.015625)"/>
       <path id="DejaVuSans-72" d="M 2631 2963 
Q 2534 3019 2420 3045 
Q 2306 3072 2169 3072 
Q 1681 3072 1420 2755 
Q 1159 2438 1159 1844 
L 1159 0 
L 581 0 
L 581 3500 
L 1159 3500 
L 1159 2956 
Q 1341 3275 1631 3429 
Q 1922 3584 2338 3584 
Q 2397 3584 2469 3576 
Q 2541 3569 2628 3553 
L 2631 2963 
z
" transform="scale(0.015625)"/>
       <path id="DejaVuSans-75" d="M 544 1381 
L 544 3500 
L 1119 3500 
L 1119 1403 
Q 1119 906 1312 657 
Q 1506 409 1894 409 
Q 2359 409 2629 706 
Q 2900 1003 2900 1516 
L 2900 3500 
L 3475 3500 
L 3475 0 
L 2900 0 
L 2900 538 
Q 2691 219 2414 64 
Q 2138 -91 1772 -91 
Q 1169 -91 856 284 
Q 544 659 544 1381 
z
M 1991 3584 
L 1991 3584 
z
" transform="scale(0.015625)"/>
      </defs>
      <use xlink:href="#DejaVuSans-413"/>
      <use xlink:href="#DejaVuSans-43e" transform="translate(60.986328 0)"/>
      <use xlink:href="#DejaVuSans-442" transform="translate(122.167969 0)"/>
      <use xlink:href="#DejaVuSans-43e" transform="translate(180.419922 0)"/>
      <use xlink:href="#DejaVuSans-432" transform="translate(241.601562 0)"/>
      <use xlink:href="#DejaVuSans-43d" transform="translate(300.537109 0)"/>
      <use xlink:href="#DejaVuSans-43e" transform="translate(365.917969 0)"/>
      <use xlink:href="#DejaVuSans-441" transform="translate(427.099609 0)"/>
      <use xlink:href="#DejaVuSans-442" transform="translate(482.080078 0)"/>
      <use xlink:href="#DejaVuSans-44c" transform="translate(540.332031 0)"/>
      <use xlink:href="#DejaVuSans-20" transform="translate(599.267578 0)"/>
      <use xlink:href="#DejaVuSans-43a" transform="translate(631.054688 0)"/>
      <use xlink:href="#DejaVuSans-20" transform="translate(691.455078 0)"/>
      <use xlink:href="#DejaVuSans-43a" transform="translate(723.242188 0)"/>
      <use xlink:href="#DejaVuSans-43e" transform="translate(783.642578 0)"/>
      <use xlink:href="#DejaVuSans-43c" transform="translate(844.824219 0)"/>
      <use xlink:href="#DejaVuSans-430" transform="translate(920.263672 0)"/>
      <use xlink:href="#DejaVuSans-43d" transform="translate(981.542969 0)"/>
      <use xlink:href="#DejaVuSans-434" transform="translate(1046.923828 0)"/>
      <use xlink:href="#DejaVuSans-438" transform="translate(1116.064453 0)"/>
      <use xlink:href="#DejaVuSans-440" transform="translate(1181.054688 0)"/>
      <use xlink:href="#DejaVuSans-43e" transform="translate(1244.53125 0)"/>
      <use xlink:href="#DejaVuSans-432" transform="translate(1305.712891 0)"/>
      <use xlink:href="#DejaVuSans-43a" transform="translate(1364.648438 0)"/>
      <use xlink:href="#DejaVuSans-430" transform="translate(1425.048828 0)"/>
      <use xlink:href="#DejaVuSans-43c" transform="translate(1486.328125 0)"/>
      <use xlink:href="#DejaVuSans-3a" transform="translate(1561.767578 0)"/>
      <use xlink:href="#DejaVuSans-20" transform="translate(1595.458984 0)"/>
      <use xlink:href="#DejaVuSans-54" transform="translate(1627.246094 0)"/>
      <use xlink:href="#DejaVuSans-72" transform="translate(1673.580078 0)"/>
      <use xlink:href="#DejaVuSans-75" transform="translate(1714.693359 0)"/>
      <use xlink:href="#DejaVuSans-65" transform="translate(1778.072266 0)"/>
     </g>
    </g>
   </g>
  </g>
 </g>
 <defs>
  <clipPath id="p52f6a03517">
   <rect x="42.743125" y="23.728437" width="661.58125" height="359.56"/>
  </clipPath>
 </defs>
</svg>
